<?xml version="1.0" encoding="utf-8"?><svg style="display: none;" xmlns="http://www.w3.org/2000/svg" xmlns:xlink="http://www.w3.org/1999/xlink"><symbol viewBox="0 0 15 21" id="Address" xmlns="http://www.w3.org/2000/svg"><path d="M7.235.823c-3.865 0-7 3.135-7 7 0 5.25 7 13 7 13s7-7.75 7-13c0-3.865-3.135-7-7-7zm0 9.5a2.5 2.5 0 010-5 2.5 2.5 0 010 5z"/></symbol><symbol viewBox="0 0 32 32" id="Frame-10" xmlns="http://www.w3.org/2000/svg"><path d="M8.94 18.908h3.16v11.743c0 .523.42.946.941.946l5.028.002a.944.944 0 00.941-.946V18.91h2.995a.94.94 0 00.933-.828l.625-5.044a.945.945 0 00-.934-1.063h-3.621c.142-3.116-.546-4.038 1.471-4.038 1.366-.164 3.519.53 3.519-.946V2.48a.944.944 0 00-.813-.937c-.392-.054-1.95-.209-3.881-.209-8.797 0-6.986 9.801-7.203 10.639H8.94a.944.944 0 00-.941.946v5.044a.942.942 0 00.94.946zm.942-5.042h3.16a.944.944 0 00.941-.946V8.946c0-3.636 1.939-5.72 5.321-5.72 1.102 0 2.116.054 2.813.11v2.71c-.504.259-4.99-1.114-4.99 3.401v3.474c0 .523.422.946.941.946h3.497l-.391 3.153h-3.105a.944.944 0 00-.941.946v11.742h-3.144V17.965a.943.943 0 00-.941-.946H9.882v-3.153z"/></symbol><symbol viewBox="0 0 32 32" id="Frame-11" xmlns="http://www.w3.org/2000/svg"><path d="M32 6.952a13.08 13.08 0 01-3.623.993 6.26 6.26 0 002.766-3.478 12.563 12.563 0 01-3.987 1.523 6.302 6.302 0 00-4.593-1.991c-3.481 0-6.284 2.827-6.284 6.294 0 .498.042.979.145 1.435-5.227-.256-9.852-2.763-12.959-6.581a6.344 6.344 0 00-.861 3.18 6.305 6.305 0 002.793 5.229 6.207 6.207 0 01-2.841-.775v.069a6.32 6.32 0 005.038 6.182c-.512.14-1.07.207-1.649.207-.402 0-.809-.023-1.19-.107.815 2.491 3.126 4.324 5.876 4.383a12.626 12.626 0 01-7.796 2.683c-.516 0-1.01-.023-1.505-.086a17.694 17.694 0 009.645 2.824c11.571 0 17.896-9.591 17.896-17.903 0-.278-.009-.546-.023-.813a12.567 12.567 0 003.15-3.267z"/></symbol><symbol viewBox="0 0 32 32" id="Frame-13" xmlns="http://www.w3.org/2000/svg"><path d="M.451 26.409a18.029 18.029 0 009.673 2.785c5.057 0 9.692-1.941 13.051-5.464 3.214-3.372 4.982-7.904 4.894-12.503 1.219-1.041 2.652-3.03 2.652-4.968a.971.971 0 00-1.462-.836c-1.145.672-2.188.848-3.263.547-2.192-2.134-5.456-2.584-8.205-1.103-2.403 1.292-3.739 3.657-3.619 6.241A16.075 16.075 0 013.745 5.419a.972.972 0 00-1.586.129c-1.26 2.155-1.247 4.653-.151 6.67-.521.091-.843.53-.843 1.004 0 2.027.914 3.891 2.384 5.162a.966.966 0 00-.248 1.004 6.962 6.962 0 003.941 4.218c-1.99.95-4.192 1.266-6.151 1.026-1.014-.138-1.514 1.224-.639 1.778zm9.938-2.474c.726-.556.34-1.717-.57-1.736a5.056 5.056 0 01-3.973-2.065 6.763 6.763 0 001.324-.212c.985-.266.938-1.685-.062-1.885a4.978 4.978 0 01-3.773-3.385c.488.12.985.187 1.48.196.981.006 1.353-1.252.552-1.777-1.804-1.187-2.574-3.284-2.065-5.256a18.043 18.043 0 0011.947 5.327c.648.04 1.134-.569.992-1.185-.614-2.66.873-4.525 2.47-5.384 1.581-.853 4.118-1.119 6.064.92.578.609 2.529.632 3.521.401-.445.837-1.129 1.632-1.77 2.08a.97.97 0 00-.413.841c.209 4.245-1.375 8.465-4.344 11.577-2.99 3.136-7.126 4.863-11.647 4.863-1.798 0-3.561-.292-5.227-.855a13.086 13.086 0 005.492-2.462z"/></symbol><symbol viewBox="0 0 32 32" id="Frame-1467" xmlns="http://www.w3.org/2000/svg"><path d="M31.944 15.972L15.972 31.944 0 15.972h31.945z"/></symbol><symbol viewBox="0 0 32 32" id="Frame-16" xmlns="http://www.w3.org/2000/svg"><path d="M18.493 1.389a.968.968 0 00-1.084.132l-9.961 8.537h-4.76c-1.128 0-2.048.985-2.048 2.194v8.777c0 1.211.92 2.194 2.048 2.194h4.76l9.959 8.537a.99.99 0 00.641.239.982.982 0 00.445-.11c.354-.182.579-.567.579-.987V2.377c0-.421-.225-.805-.579-.989zm5.762 7.493a.977.977 0 00-1.447.008 1.156 1.156 0 00.008 1.553c1.549 1.637 2.4 3.838 2.4 6.197s-.852 4.559-2.4 6.196a1.156 1.156 0 00-.008 1.552c.2.218.465.325.727.325.26 0 .52-.105.721-.318 1.941-2.046 3.008-4.803 3.008-7.754s-1.067-5.707-3.009-7.758z"/><path d="M27.145 5.79a.978.978 0 00-1.45.006 1.156 1.156 0 00.006 1.551c2.329 2.473 3.61 5.774 3.61 9.293s-1.282 6.818-3.611 9.29a1.158 1.158 0 00-.006 1.553.996.996 0 00.727.323.99.99 0 00.723-.318c2.72-2.884 4.215-6.738 4.215-10.848s-1.495-7.962-4.215-10.85z"/></symbol><symbol viewBox="0 0 32 32" id="Frame-17" xmlns="http://www.w3.org/2000/svg"><path d="M25.142 1.148c0-.434-.251-.846-.64-1.028a1.112 1.112 0 00-1.211.137L13.165 8.324l11.977 11.975V1.148zm6.524 28.9L1.951.34A1.143 1.143 0 00.335 1.956l7.191 7.192h-.67c-.709 0-1.326.32-1.737.823a2.227 2.227 0 00-.549 1.463v9.141a2.292 2.292 0 002.286 2.285h5.303l11.132 8.89c.206.16.457.251.709.251.16 0 .343-.046.503-.114.389-.183.64-.594.64-1.028v-4.098l4.905 4.904c.224.224.516.336.809.336s.585-.112.81-.333a1.146 1.146 0 000-1.618z"/></symbol><symbol viewBox="0 0 32 32" id="Frame-18" xmlns="http://www.w3.org/2000/svg"><path d="M28.431 1.333H18.103c-.498 0-.901.39-.901.872v27.59c0 .481.403.872.901.872h10.329c.498 0 .901-.39.901-.872V2.205c-.001-.481-.404-.871-.902-.871zm-15.869 0H2.234c-.498 0-.901.39-.901.872v27.59c0 .481.404.872.901.872h10.328c.498 0 .901-.39.901-.872V2.205c0-.481-.403-.871-.901-.871z"/></symbol><symbol viewBox="0 0 32 32" id="Frame-19" xmlns="http://www.w3.org/2000/svg"><path d="M7.739.708C4.941-.95 2.667.405 2.667 3.732v24.535c0 3.327 2.274 4.681 5.072 3.029l20.829-12.301c2.799-1.653 2.799-4.337 0-5.991L7.739.708z"/></symbol><symbol viewBox="0 0 32 32" id="Frame-2" xmlns="http://www.w3.org/2000/svg"><path d="M11.546 6.429c.517 0 .937-.42.937-.937V3.605a.938.938 0 00-1.874 0v1.887c0 .518.419.937.937.937zM3.042 9.861l-1.635-.944a.937.937 0 10-.938 1.624l1.635.944a.939.939 0 00.938-1.624zm-.938 10.361l-1.635.944a.938.938 0 00.938 1.624l1.635-.944a.938.938 0 00-.938-1.624zm18.884-8.737l1.635-.944a.938.938 0 00-.938-1.624l-1.635.944a.938.938 0 00.938 1.624zm3.943 5.699a7.05 7.05 0 00-6.54-4.393 7.509 7.509 0 00-6.845-4.437c-4.136 0-7.5 3.364-7.5 7.5a7.5 7.5 0 003.47 6.321c-2.222 3.511.305 8.115 4.463 8.115 14.75-.015 13.943.037 14.2-.042a6.564 6.564 0 00-1.249-13.065zM5.922 15.853a5.63 5.63 0 015.625-5.625 5.626 5.626 0 014.888 2.847 7.031 7.031 0 00-5.052 6.675 5.19 5.19 0 00-2.565 1.018 5.627 5.627 0 01-2.896-4.915zm19.903 12.546c-.334.027-8.841.012-13.845.017-3.091 0-4.597-3.831-2.297-5.932a3.372 3.372 0 012.611-.875.938.938 0 001.013-1.064c-.435-3.101 1.967-5.879 5.106-5.879a5.165 5.165 0 014.976 3.8.939.939 0 001.094.673 4.69 4.69 0 015.642 4.59c0 2.422-1.888 4.474-4.299 4.671z"/></symbol><symbol viewBox="0 0 32 32" id="Frame-20" xmlns="http://www.w3.org/2000/svg"><path d="M32 15.991L17.411 0v9.579h-1.695c-4.197 0-8.145 1.634-11.113 4.602S0 21.094 0 25.291V32l2.799-3.066a20.095 20.095 0 0114.612-6.529v9.578L32 15.992zM1.876 27.179v-1.888c0-3.696 1.44-7.171 4.054-9.784s6.09-4.052 9.787-4.052h3.57V4.84l10.175 11.152-10.174 11.153v-6.616h-1.683a21.98 21.98 0 00-15.729 6.65z"/></symbol><symbol viewBox="0 0 32 32" id="Frame-21" xmlns="http://www.w3.org/2000/svg"><path d="M32 15.989L18.701 0v9.539h-2.827C7.107 9.539 0 17.332 0 26.945V32l1.255-1.509c4.269-5.129 10.311-8.052 16.645-8.052h.801v9.539L32 15.989z"/></symbol><symbol viewBox="0 0 32 32" id="Frame-22" xmlns="http://www.w3.org/2000/svg"><path d="M27.601 1.333H4.4C1.974 1.333.001 3.299.001 5.716v14.147c0 2.413 1.965 4.375 4.384 4.383v6.42l9.259-6.419h13.958c2.426 0 4.399-1.966 4.399-4.384V5.716c.001-2.417-1.973-4.383-4.399-4.383zm-4.165 6.602zm0 7.97z"/></symbol><symbol viewBox="0 0 32 32" id="Frame-23" xmlns="http://www.w3.org/2000/svg"><path d="M27.601 1.333H4.4C1.974 1.333.001 3.299.001 5.716v14.147c0 2.412 1.965 4.375 4.384 4.383v6.42l9.26-6.42h13.957c2.426 0 4.399-1.966 4.399-4.383V5.716c0-2.418-1.973-4.384-4.399-4.384zm2.524 18.531a2.523 2.523 0 01-2.525 2.515H13.054l-6.796 4.712v-4.712H4.399a2.524 2.524 0 01-2.525-2.515V5.717a2.523 2.523 0 012.525-2.515H27.6a2.523 2.523 0 012.525 2.515v14.147z"/></symbol><symbol viewBox="0 0 32 32" id="Frame-24" xmlns="http://www.w3.org/2000/svg"><path d="M16 6.667c-6.114 0-11.658 3.507-15.75 9.204a1.379 1.379 0 000 1.585c4.091 5.703 9.636 9.211 15.75 9.211s11.658-3.507 15.75-9.204a1.379 1.379 0 000-1.585C27.659 10.175 22.114 6.667 16 6.667zm.439 17.042c-4.058.268-7.41-3.239-7.155-7.502.209-3.514 2.926-6.362 6.278-6.582 4.058-.268 7.41 3.24 7.155 7.502-.216 3.507-2.933 6.355-6.278 6.582zm-.203-3.254c-2.186.144-3.993-1.743-3.849-4.036.111-1.894 1.578-3.425 3.384-3.548 2.186-.144 3.993 1.743 3.849 4.036-.118 1.901-1.584 3.432-3.384 3.548z"/></symbol><symbol viewBox="0 0 32 32" id="Frame-25" xmlns="http://www.w3.org/2000/svg"><path d="M31.881 14.928c-.252-.393-6.309-9.595-15.881-9.595-8.214 0-15.536 9.148-15.843 9.538a.758.758 0 000 .923c.308.39 7.629 9.538 15.843 9.538s15.535-9.149 15.843-9.538a.755.755 0 00.038-.867zm-15.882 8.978c-6.585 0-12.847-6.729-14.438-8.571 1.588-1.845 7.843-8.571 14.438-8.571 7.705 0 13.145 6.719 14.472 8.533-1.533 1.784-7.83 8.61-14.472 8.61z"/><path d="M15.999 9.62c-2.942 0-5.334 2.563-5.334 5.714s2.392 5.714 5.334 5.714c2.942 0 5.334-2.563 5.334-5.714S18.941 9.62 15.999 9.62zm0 10c-2.206 0-4-1.923-4-4.286s1.794-4.286 4-4.286c2.205 0 4 1.923 4 4.286s-1.794 4.286-4 4.286z"/></symbol><symbol viewBox="0 0 32 32" id="Frame-26" xmlns="http://www.w3.org/2000/svg"><path d="M1.71 9.285c.59 0 1.07-.48 1.07-1.07V3.654l6.892 6.888a1.067 1.067 0 001.512 0 1.07 1.07 0 000-1.512L4.292 2.14h4.563a1.07 1.07 0 100-2.14H1.71C1.12 0 .64.48.64 1.07v7.145c0 .59.48 1.07 1.07 1.07zm28.58 12.15c-.592 0-1.07.48-1.07 1.07v4.563l-7.104-7.104a1.07 1.07 0 00-1.512 1.512l7.102 7.102h-4.561a1.071 1.071 0 000 2.14h7.145c.59 0 1.07-.478 1.07-1.07v-7.145c0-.59-.48-1.068-1.07-1.068zM9.882 19.964L2.78 27.066v-4.561a1.07 1.07 0 10-2.14 0v7.145c0 .59.48 1.07 1.07 1.07h7.145a1.07 1.07 0 100-2.14H4.294l7.102-7.104a1.07 1.07 0 00-1.514-1.512zM30.29 0h-7.145a1.071 1.071 0 000 2.14h4.561l-6.89 6.89a1.07 1.07 0 001.512 1.512l6.89-6.89v4.563a1.07 1.07 0 102.14 0V1.07A1.068 1.068 0 0030.29 0z"/></symbol><symbol viewBox="0 0 32 32" id="Frame-27" xmlns="http://www.w3.org/2000/svg"><path d="M29.803 2.197a7.5 7.5 0 00-10.607 0l-6.268 6.268c-3.03 3.03-2.749 7.858 0 10.607.461.461.97.836 1.508 1.144l1.144-1.144c.751-.751.486-1.628.473-2.261a3.621 3.621 0 01-.473-.391c-1.411-1.411-1.474-3.829 0-5.303l6.268-6.268c1.463-1.463 3.841-1.463 5.303 0s1.463 3.841 0 5.303l-4.143 4.143c.12.663.839 2.233.469 4.824.018-.017.04-.029.057-.047l6.268-6.268a7.502 7.502 0 00.001-10.608z"/><path d="M18.05 11.299l-1.144 1.144c-.751.751-.486 1.628-.473 2.261.165.117.325.243.473.391 1.411 1.411 1.475 3.829 0 5.303l-6.754 6.755c-1.463 1.463-3.841 1.463-5.303 0s-1.463-3.841 0-5.303l4.629-4.629c-.12-.663-.839-2.233-.469-4.824-.018.018-.04.029-.057.047l-6.755 6.754a7.5 7.5 0 0010.607 10.607l6.755-6.755c2.974-2.974 2.811-7.796 0-10.607a7.18 7.18 0 00-1.508-1.144z"/></symbol><symbol viewBox="0 0 32 32" id="Frame-28" xmlns="http://www.w3.org/2000/svg"><path d="M10.242 14.751a8.52 8.52 0 00-2.344-.34c-1.183 0-2.172.27-2.937.6.738-2.698 2.513-7.353 6.046-7.876a.84.84 0 00.685-.604l.772-2.756a.839.839 0 00-.695-1.055 5.793 5.793 0 00-.79-.054c-4.241 0-8.443 4.417-10.214 10.743C-.276 17.12-.581 22.7 1.981 26.212c1.436 1.966 3.527 3.014 6.22 3.12h.033a7.466 7.466 0 007.166-5.43 7.369 7.369 0 00-.682-5.644c-.966-1.709-2.555-2.955-4.477-3.508zm20.797 3.508c-.966-1.709-2.555-2.955-4.476-3.508a8.51 8.51 0 00-2.342-.34c-1.185 0-2.172.27-2.939.6.739-2.698 2.513-7.353 6.046-7.876a.837.837 0 00.685-.604l.772-2.756a.839.839 0 00-.693-1.055 5.793 5.793 0 00-.79-.054c-4.242 0-8.443 4.417-10.216 10.743-1.041 3.711-1.346 9.291 1.218 12.803 1.434 1.966 3.527 3.016 6.22 3.12h.033a7.465 7.465 0 007.165-5.428 7.369 7.369 0 00-.682-5.646z"/></symbol><symbol viewBox="0 0 32 32" id="Frame-29" xmlns="http://www.w3.org/2000/svg"><path d="M31.997 11.574L32 .934 27.776 5.16l-.473-.473A15.886 15.886 0 0015.994 0C7.175 0 .001 7.177.001 16s7.174 16 15.993 16c8.819 0 15.993-7.177 15.993-16h-3.096c0 7.115-5.786 12.903-12.898 12.903S3.096 23.114 3.096 16c0-7.115 5.786-12.903 12.897-12.903 3.445 0 6.684 1.342 9.12 3.78l.473.473-4.224 4.225 10.635-.001z"/></symbol><symbol viewBox="0 0 32 32" id="Frame-3" xmlns="http://www.w3.org/2000/svg"><path d="M11.547 6.429c.518 0 .938-.42.938-.937V3.605a.938.938 0 00-1.876 0v1.887c0 .518.42.937.938.937zM3.042 9.862l-1.635-.944a.937.937 0 10-.938 1.624l1.635.944a.939.939 0 00.938-1.624zm-.938 10.361l-1.635.944c-.828.477-.487 1.749.47 1.749.425 0 .532-.205 2.102-1.07a.938.938 0 00-.938-1.624zm18.885-8.738l1.635-.944a.938.938 0 00-.938-1.624l-1.635.944a.938.938 0 00.938 1.624zM9.651 18.227a8.903 8.903 0 017.601-7.235 7.488 7.488 0 00-5.707-2.638c-4.136 0-7.5 3.364-7.5 7.5a7.47 7.47 0 002.02 5.115 7.188 7.188 0 013.586-2.742z"/><path d="M24.931 17.185a7.048 7.048 0 00-6.519-4.393c-3.867 0-6.989 3.117-7.03 6.96-2.662.293-4.688 2.576-4.688 5.254a5.292 5.292 0 005.286 5.286c14.751-.016 13.943.038 14.201-.042a6.564 6.564 0 00-1.249-13.065z"/></symbol><symbol viewBox="0 0 32 32" id="Frame-30" xmlns="http://www.w3.org/2000/svg"><path d="M32 20.12c0-.772-.294-1.491-.802-2.021a3.276 3.276 0 00.788-2.451c-.144-1.633-1.553-2.912-3.209-2.912h-7.602c.377-1.193.98-3.38.98-5.137 0-2.785-2.268-5.137-3.692-5.137-1.278 0-2.192.751-2.23.782a.649.649 0 00-.232.502v4.355l-3.546 8.012-.146.079v-.246a.628.628 0 00-.615-.642H5.54c-1.697 0-3.077 1.44-3.077 3.211v10.274C2.463 30.56 3.843 32 5.54 32h3.692c1.331 0 2.468-.886 2.896-2.123 1.024.55 2.402.839 3.258.839h11.297c1.34 0 2.513-.942 2.789-2.243a3.007 3.007 0 00-.222-1.93c.908-.476 1.52-1.456 1.52-2.569 0-.454-.1-.89-.288-1.283.908-.478 1.518-1.457 1.518-2.57zM9.231 30.716H5.539c-1.018 0-1.846-.864-1.846-1.926V18.516c0-1.062.828-1.926 1.846-1.926h5.538v12.201c0 1.062-.828 1.926-1.846 1.926zm20.174-9.011c-.238.03-.439.198-.515.435s-.012.498.162.67c.312.307.486.721.486 1.162 0 .811-.587 1.491-1.364 1.584-.238.03-.439.197-.515.435s-.012.498.162.67c.405.398.568.957.445 1.532-.151.717-.818 1.235-1.586 1.235H15.383c-.911 0-2.383-.406-3.077-.938V17.626l.891-.465a.625.625 0 00.283-.304l3.692-8.348a.678.678 0 00.057-.27V4.092a2.51 2.51 0 011.231-.348c.675 0 2.462 1.749 2.462 3.853 0 2.26-1.179 5.518-1.19 5.55-.072.197-.047.419.068.593s.305.278.507.278h8.469c1.026 0 1.898.767 1.984 1.745a1.945 1.945 0 01-.876 1.817c-.188.12-.3.339-.291.571s.137.441.334.547c.52.276.842.82.842 1.419 0 .811-.587 1.491-1.365 1.584z"/></symbol><symbol viewBox="0 0 32 32" id="Frame-31" xmlns="http://www.w3.org/2000/svg"><path d="M31.341 8.83a4.005 4.005 0 00-2.82-2.813C26.017 5.334 16 5.334 16 5.334s-10.016 0-12.52.657A4.086 4.086 0 00.66 8.83c-.659 2.497-.659 7.675-.659 7.675s0 5.204.659 7.675a4.003 4.003 0 002.82 2.813c2.53.683 12.521.683 12.521.683s10.016 0 12.52-.657a4.006 4.006 0 002.821-2.813c.659-2.497.659-7.675.659-7.675s.027-5.205-.659-7.701zm-18.53 12.459v-9.568l8.329 4.784-8.329 4.783z"/></symbol><symbol viewBox="0 0 32 32" id="Frame-32" xmlns="http://www.w3.org/2000/svg"><path d="M15.657 0h2.519c4.622.4 9.003 2.788 11.462 6.464 3.554 5.02 3.063 12.192-1.253 16.688-1.197 1.296-3.649.968-4.381-.604-1.211-2.452-2.166-5.008-3.303-7.488-1.077 2.396-2.033 4.844-3.149 7.228-.487 1.272-2.136 2.092-3.506 1.504-1.038-.36-1.525-1.348-1.916-2.232-1.533-3.588-3.105-7.164-4.66-10.748 1.258-.004 2.516 0 3.777-.004 1.258 2.884 2.507 5.776 3.773 8.656a745.207 745.207 0 002.8-6.508c.418-.976.965-2.072 2.141-2.404 1.296-.452 2.7.404 3.192 1.516 1.245 2.616 2.282 5.316 3.493 7.944 1.223-1.936 1.995-4.148 1.861-6.416-.129-4.984-4.479-9.528-9.799-10.216-6.329-.887-12.773 3.14-14.595 8.78-1.787 4.992.245 10.84 4.768 13.984 3.269 2.444 7.762 3.232 11.785 2.148-.005 1.116-.008 2.232-.005 3.344-.754.124-1.503.256-2.257.364h-2.576c-4.338-.384-8.533-2.22-11.419-5.28-2.567-2.605-4.01-6.026-4.41-9.513v-2.292c.353-3.536 1.822-7.004 4.415-9.644C7.261 2.251 11.392.442 15.656-.001z"/></symbol><symbol viewBox="0 0 32 32" id="Frame-33" xmlns="http://www.w3.org/2000/svg"><path d="M16.026.64C7.895.64 1.28 7.859 1.28 16.732v7.376c0 .37.3.67.67.67h2.011v2.682a2.684 2.684 0 002.681 2.682h2.011c.37 0 .67-.3.67-.67V17.403a.67.67 0 00-.67-.67H6.642a2.684 2.684 0 00-2.681 2.682v-2.682c0-7.395 5.412-13.41 12.065-13.41s12.065 6.016 12.065 13.41v2.682a2.684 2.684 0 00-2.681-2.682h-2.011c-.37 0-.67.3-.67.67v12.069c0 .371.3.67.67.67h2.011a2.684 2.684 0 002.681-2.682v-2.682h2.011c.37 0 .67-.3.67-.67v-7.376C30.772 7.859 24.157.64 16.026.64z"/></symbol><symbol viewBox="0 0 32 32" id="Frame-34" xmlns="http://www.w3.org/2000/svg"><path d="M30.425 29.147l-7.616-7.921a12.88 12.88 0 003.031-8.306C25.84 5.796 20.044 0 12.92 0S0 5.796 0 12.92s5.796 12.92 12.92 12.92c2.674 0 5.223-.807 7.402-2.338l7.674 7.981c.321.333.752.517 1.215.517a1.687 1.687 0 001.215-2.853zM12.92 3.37c5.266 0 9.55 4.284 9.55 9.55s-4.284 9.55-9.55 9.55c-5.266 0-9.55-4.284-9.55-9.55s4.284-9.55 9.55-9.55z"/></symbol><symbol viewBox="0 0 32 32" id="Frame-35" xmlns="http://www.w3.org/2000/svg"><path d="M7.182 16c0-.574.218-1.147.653-1.584L21.527.657c.871-.875 2.283-.875 3.154 0s.871 2.294 0 3.169L12.566 16l12.115 12.174c.871.875.871 2.294 0 3.169s-2.283.876-3.154 0L7.835 17.584A2.239 2.239 0 017.183 16z"/></symbol><symbol viewBox="0 0 32 32" id="Frame-36" xmlns="http://www.w3.org/2000/svg"><path d="M24.818 16c0-.574-.218-1.147-.653-1.584L10.473.657c-.871-.875-2.283-.875-3.154 0s-.871 2.294 0 3.169L19.434 16 7.319 28.174c-.871.875-.871 2.294 0 3.169s2.283.876 3.154 0l13.692-13.759A2.239 2.239 0 0024.817 16z"/></symbol><symbol viewBox="0 0 32 32" id="Frame-37" xmlns="http://www.w3.org/2000/svg"><path d="M17.769 16L31.635 2.134A1.25 1.25 0 0029.867.366L16.001 14.232 2.135.366A1.25 1.25 0 00.367 2.133l13.867 13.866L.368 29.865a1.25 1.25 0 001.768 1.768l13.866-13.866 13.866 13.866c.244.244.564.366.884.366s.64-.122.884-.366a1.25 1.25 0 000-1.768L17.77 15.999z"/></symbol><symbol viewBox="0 0 32 32" id="Frame-38" xmlns="http://www.w3.org/2000/svg"><path d="M30.667 16.889H1.334a1.333 1.333 0 010-2.666h29.333a1.333 1.333 0 010 2.666zm0-10.222H1.334a1.333 1.333 0 010-2.666h29.333a1.333 1.333 0 010 2.666zm0 20.444H1.334a1.333 1.333 0 010-2.666h29.333a1.333 1.333 0 010 2.666z"/></symbol><symbol viewBox="0 0 32 32" id="Frame-4" xmlns="http://www.w3.org/2000/svg"><path d="M27.428 3.301h-3.291v-2.2C24.137.493 23.646 0 23.04 0s-1.097.493-1.097 1.101v2.2H8.777v-2.2C8.777.493 8.286 0 7.68 0S6.583.493 6.583 1.101v2.2H3.292A3.296 3.296 0 00.001 6.602v20.906a3.296 3.296 0 003.291 3.301h24.137a3.296 3.296 0 003.291-3.301V6.602a3.297 3.297 0 00-3.292-3.301zm-24.137 2.2h3.291v2.2c0 .608.491 1.101 1.097 1.101s1.097-.493 1.097-1.101v-2.2h13.166v2.2c0 .608.491 1.101 1.097 1.101s1.097-.493 1.097-1.101v-2.2h3.291c.606 0 1.097.493 1.097 1.101v4.401H2.193V6.602a1.097 1.097 0 011.096-1.101zm24.137 23.107H3.291a1.099 1.099 0 01-1.097-1.101V13.204h26.331v14.304c0 .607-.491 1.1-1.097 1.1z"/><path d="M8.777 15.404H6.583c-.606 0-1.097.493-1.097 1.101s.491 1.101 1.097 1.101h2.194c.606 0 1.097-.493 1.097-1.101s-.492-1.101-1.097-1.101zm7.68 0h-2.194c-.606 0-1.097.493-1.097 1.101s.491 1.101 1.097 1.101h2.194c.606 0 1.097-.493 1.097-1.101s-.492-1.101-1.097-1.101zm7.68 0h-2.194c-.606 0-1.097.493-1.097 1.101s.491 1.101 1.097 1.101h2.194c.606 0 1.097-.493 1.097-1.101s-.491-1.101-1.097-1.101zm-15.36 4.401H6.583c-.606 0-1.097.493-1.097 1.101s.491 1.101 1.097 1.101h2.194c.606 0 1.097-.493 1.097-1.101s-.492-1.101-1.097-1.101zm7.68 0h-2.194c-.606 0-1.097.493-1.097 1.101s.491 1.101 1.097 1.101h2.194c.606 0 1.097-.493 1.097-1.101s-.492-1.101-1.097-1.101zm7.68 0h-2.194c-.606 0-1.097.493-1.097 1.101s.491 1.101 1.097 1.101h2.194c.606 0 1.097-.493 1.097-1.101s-.491-1.101-1.097-1.101zm-15.36 4.402H6.583a1.1 1.1 0 000 2.201h2.194c.606 0 1.097-.493 1.097-1.101s-.492-1.1-1.097-1.1zm7.68 0h-2.194a1.1 1.1 0 000 2.201h2.194c.606 0 1.097-.493 1.097-1.101s-.492-1.1-1.097-1.1zm7.68 0h-2.194a1.1 1.1 0 000 2.201h2.194c.606 0 1.097-.493 1.097-1.101s-.491-1.1-1.097-1.1z"/></symbol><symbol viewBox="0 0 32 32" id="Frame-5" xmlns="http://www.w3.org/2000/svg"><path d="M24.653 30.835c-1.323 0-2.858-.347-4.548-1.043-3.346-1.378-7.048-4.003-10.425-7.392-3.35-3.362-5.947-7.079-7.313-10.466-1.446-3.586-1.372-6.48.207-8.148l.015-.016 2.749-2.759C5.988.359 6.875 0 7.837 0c.94 0 1.852.345 2.566.973l.041.039 4.052 4.066a3.605 3.605 0 01.953 3.434c-.296 1.195-1.157 2.121-2.306 2.48-.431.146-.81.466-1.041.878-.228.407-.281.846-.151 1.238l.012.036.008.036c.3 1.264 1.316 2.849 2.719 4.238 1.379 1.366 2.938 2.368 4.175 2.681.92.199 1.895-.326 2.182-1.176a3.421 3.421 0 012.471-2.313 3.572 3.572 0 013.421.956l4.051 4.066c.65.652 1.008 1.543 1.008 2.508 0 .943-.344 1.858-.969 2.575l-.039.041-2.749 2.759c-.876.879-2.099 1.319-3.59 1.319zM3.797 4.966c-1.072 1.142-1.02 3.448.142 6.33 1.282 3.18 3.747 6.696 6.94 9.901 3.221 3.233 6.727 5.726 9.87 7.021 2.879 1.186 5.173 1.22 6.295.095l2.728-2.737c.7-.823.712-2.046.021-2.739l-4.052-4.066a1.891 1.891 0 00-1.813-.508c-.621.155-1.081.583-1.262 1.174l-.006.019c-.561 1.689-2.393 2.701-4.171 2.304l-.021-.005c-1.543-.387-3.353-1.526-4.966-3.124-1.631-1.616-2.784-3.444-3.169-5.02-.268-.843-.165-1.755.294-2.574a3.646 3.646 0 011.99-1.661l.019-.006c.589-.182 1.015-.644 1.169-1.267a1.912 1.912 0 00-.506-1.82l-4.03-4.044c-.82-.703-2.039-.715-2.729-.022L3.798 4.968z"/></symbol><symbol viewBox="0 0 32 32" id="Frame-6" xmlns="http://www.w3.org/2000/svg"><path d="M10.825 13.258c.766 3.228 4.901 7.224 7.965 7.993 1.379.307 2.91-.461 3.37-1.845.613-1.998 3.217-2.613 4.748-1.076l4.289 4.304c1.072 1.076 1.072 2.921 0 4.15l-2.91 2.92c-3.063 3.074-11.181-.307-18.38-7.532S-.508 6.801 2.402 3.727L5.312.806C6.384-.27 8.222-.27 9.447.806l4.289 4.304c1.532 1.537.919 4.15-1.072 4.765-1.379.461-2.297 1.998-1.838 3.382z"/></symbol><symbol viewBox="0 0 32 32" id="Frame-7" xmlns="http://www.w3.org/2000/svg"><path d="M31.981 6.389l-11.249 9.382L32 23.283V6.601c0-.073-.007-.143-.019-.212zM18.299 17.801a3.584 3.584 0 01-4.598 0l-1.418-1.183L0 24.805v.168c0 .699.568 1.267 1.265 1.267h29.47c.697 0 1.265-.568 1.265-1.267v-.168l-12.283-8.187-1.418 1.183z"/><path d="M1.142 5.676l13.369 11.149c.863.72 2.116.72 2.979 0L30.858 5.676c.137-.115.06-.342-.119-.343H1.26c-.179.001-.256.229-.119.343zm-1.123.713A1.337 1.337 0 000 6.601v16.682l11.268-7.512L.019 6.389z"/></symbol><symbol viewBox="0 0 32 32" id="Frame-8" xmlns="http://www.w3.org/2000/svg"><path d="M28.02 5.333H2.7A2.705 2.705 0 000 8.037v15.672a2.705 2.705 0 002.7 2.704h25.32c1.489 0 2.7-1.213 2.7-2.704V8.037a2.705 2.705 0 00-2.7-2.704zm-7.962 10.496l8.861-7.391v13.298l-8.861-5.908zm7.249-8.392l-10.876 9.071a1.674 1.674 0 01-2.143 0L3.051 7.136h24.615l-.359.3zM1.8 8.438l8.861 7.391L1.8 21.736V8.438zm26.22 16.174H2.7a.902.902 0 01-.882-.722l10.287-6.857 1.032.861a3.464 3.464 0 004.446 0l1.032-.861 10.286 6.857a.902.902 0 01-.881.722z"/></symbol><symbol viewBox="0 0 32 32" id="Frame-9" xmlns="http://www.w3.org/2000/svg"><path d="M21.079 5.125H24V.217C23.497.15 21.763 0 19.745 0c-4.212 0-7.097 2.555-7.097 7.252v4.323H8v5.487h4.648v13.805h5.698V17.063h4.46l.708-5.487h-5.169v-3.78c.001-1.585.443-2.671 2.734-2.671z"/></symbol><symbol viewBox="0 0 18 12" id="arrow-right" xmlns="http://www.w3.org/2000/svg"><path d="M0 6c0 .35.283.632.632.632H15.86l-3.989 3.986a.63.63 0 10.894.89l5.058-5.063a.654.654 0 000-.894L12.761.493a.632.632 0 00-.893.893l3.985 3.985H.629A.624.624 0 000 6z"/></symbol><symbol viewBox="0 0 10 10" id="copyright" xmlns="http://www.w3.org/2000/svg"><path d="M5 10a4.967 4.967 0 01-3.536-1.464A4.967 4.967 0 010 5a4.97 4.97 0 011.464-3.536A4.967 4.967 0 015 0a4.97 4.97 0 013.536 1.464A4.967 4.967 0 0110 5a4.97 4.97 0 01-1.464 3.536A4.967 4.967 0 015 10zM5 .781A4.224 4.224 0 00.781 5 4.224 4.224 0 005 9.219 4.224 4.224 0 009.219 5 4.224 4.224 0 005 .781zm2.058 6.277l-.553-.553c-.83.83-2.18.83-3.01 0a2.13 2.13 0 010-3.01 2.13 2.13 0 013.01 0l.553-.553a2.914 2.914 0 00-4.116 0 2.914 2.914 0 000 4.116A2.901 2.901 0 005 7.908c.745 0 1.49-.283 2.058-.85z"/></symbol><symbol viewBox="0 0 30 31" id="icon_chungta" xmlns="http://www.w3.org/2000/svg"><g clip-path="url(#bmclip0)"><path d="M4.037 9.26c2.23 0 4.038-1.8 4.038-4.019 0-2.219-1.808-4.017-4.038-4.017C1.807 1.224 0 3.022 0 5.24a4.028 4.028 0 004.037 4.02zM20.81 12.992c-.06.377-.095.813-.095 1.328v.622c0 2.058-.525 3.871-1.574 5.436-1.05 1.567-2.638 2.35-4.764 2.35-1.196 0-2.229-.247-3.103-.74-.874-.493-1.53-1.145-1.967-1.957-.875-1.594-1.312-3.276-1.312-5.044v-.362a8.06 8.06 0 00-.15-1.631H.294c-.003.013-.01.03-.01.043-.045.335-.066.85-.066 1.544v.405c0 3.884 1.18 7.365 3.54 10.438 1.136 1.506 2.615 2.725 4.436 3.652 1.82.927 3.847 1.392 6.075 1.392 2.229 0 4.262-.457 6.097-1.37 1.836-.914 3.336-2.11 4.503-3.588 2.388-3.132 3.584-6.61 3.584-10.438v-.448c0-.657-.041-1.193-.115-1.632h-7.53zm-.43-3.337l-1.394.324c-.93 0-1.689-.909-2.278-2.728-.248-.74-.372-1.372-.372-1.897 0-.524.093-.924.279-1.203.309-.399.883-.723 1.719-.97l7.668-2.36C26.81.61 27.274.5 27.398.5c.929 0 1.673.91 2.23 2.728.248.74.372 1.365.372 1.873s-.094.902-.279 1.179c-.31.402-.882.724-1.72.97L20.38 9.656z"/></g><defs><clipPath id="bmclip0"><path transform="translate(0 .5)" d="M0 0h30v30H0z"/></clipPath></defs></symbol><symbol viewBox="0 0 30 44" id="icon_congdong" xmlns="http://www.w3.org/2000/svg"><g clip-path="url(#bnclip0)"><path d="M14.778 27.095a4.417 4.417 0 01-2.532-.793C9.8 24.606 5.239 21.034 2.176 16.144l-.037-.058c-.124-.219-3.092-5.428-1.6-9.976.705-2.154 2.313-3.835 4.642-4.853C7.24.34 11.504-.191 14.749 3.185c2.204-2.176 5.974-3.93 10.943-1.535.037.021.073.036.11.058.305.174 3.026 1.797 3.856 5.384.72 3.1-.226 6.57-2.802 10.318-.109.167-3.303 4.991-9.713 9.008a4.473 4.473 0 01-2.365.677zM5.45 14.143c2.7 4.286 6.788 7.48 8.986 9.008a.605.605 0 00.67.015c5.653-3.544 8.534-7.852 8.563-7.895 1.914-2.787 2.693-5.283 2.263-7.255a4.87 4.87 0 00-1.993-2.954c-4.773-2.248-7.116 1.44-7.538 2.212a1.912 1.912 0 01-1.674.997h-.015a1.916 1.916 0 01-1.673-.968C10.769 3.301 7.363 4.495 6.7 4.778c-1.317.583-2.146 1.405-2.517 2.525-.786 2.387.625 5.72 1.266 6.84z"/><path d="M27.773 25.872c-1.23 0-2.219.997-2.219 2.22 0 5.828-4.722 10.557-10.558 10.557A10.544 10.544 0 014.446 28.1a2.22 2.22 0 00-2.22-2.22C1.005 25.88 0 26.87 0 28.1c0 8.28 6.716 14.996 14.996 14.996 8.28 0 14.997-6.716 14.997-14.996a2.216 2.216 0 00-2.22-2.227z"/></g><defs><clipPath id="bnclip0"><path transform="translate(0 .5)" d="M0 0h30v43H0z"/></clipPath></defs></symbol><symbol viewBox="0 0 30 30" id="icon_congnghe" xmlns="http://www.w3.org/2000/svg"><path d="M18.023 14.701a.956.956 0 01-.953.954H7.055a.956.956 0 01-.953-.954c0-.526.431-.953.953-.953H17.07a.96.96 0 01.953.954z"/><path d="M19.268 17.536a2.783 2.783 0 01-2.78-2.78c0-1.53 1.25-2.78 2.78-2.78 1.53 0 2.78 1.25 2.78 2.78a2.783 2.783 0 01-2.78 2.78zm0-3.943a1.165 1.165 0 10.002 2.33 1.165 1.165 0 00-.002-2.33zm-6.251-5.294c0 .517.421.943.943.943h4.22a.945.945 0 00.943-.943.945.945 0 00-.943-.943h-4.22a.942.942 0 00-.943.943z"/><path d="M11.782 11.099a2.748 2.748 0 01-2.745-2.745 2.752 2.752 0 012.745-2.744 2.752 2.752 0 012.744 2.744 2.749 2.749 0 01-2.744 2.745zm0-3.899a1.154 1.154 0 100 2.309 1.154 1.154 0 000-2.309zM4.531 22.173c0 .516.422.943.944.943h8.765a.945.945 0 00.944-.943.945.945 0 00-.944-.944H5.475a.942.942 0 00-.944.944z"/><path d="M3.296 24.972a2.748 2.748 0 01-2.744-2.744 2.752 2.752 0 012.744-2.745 2.752 2.752 0 012.745 2.745c0 1.51-1.23 2.744-2.745 2.744zm0-3.898a1.154 1.154 0 100 2.308 1.154 1.154 0 000-2.308zm22.724-.211a.945.945 0 01-.943.943h-4.22a.945.945 0 01-.943-.943c0-.517.421-.943.943-.943h4.22c.522 0 .943.426.943.943z"/><path d="M24.51 20.913a2.748 2.748 0 012.744-2.744A2.752 2.752 0 0130 20.913a2.752 2.752 0 01-2.745 2.745 2.748 2.748 0 01-2.744-2.745zm1.595 0a1.154 1.154 0 102.309 0 1.154 1.154 0 00-2.309 0zM14.792 27.486c-2.308 0-4.476-.622-6.342-1.7a1.015 1.015 0 00-1.26.185l-.015.015a1.06 1.06 0 00.246 1.63 14.702 14.702 0 007.366 1.968c3.994 0 7.616-1.581 10.276-4.155a1.006 1.006 0 00.03-1.405l-.015-.015a1.07 1.07 0 00-1.526-.05 12.626 12.626 0 01-8.76 3.527zm0-27.486C6.623 0 0 6.623 0 14.792c0 .848.075 1.676.21 2.484a.959.959 0 00.944.787c.677 0 1.21-.602 1.099-1.27a12.596 12.596 0 01-.065-3.562C2.945 7.165 8.003 2.434 14.104 2.112c7.311-.386 13.377 5.45 13.377 12.68 0 .532-.035 1.053-.1 1.565-.08.627.406 1.18 1.038 1.18.532 0 .979-.402 1.044-.934.075-.597.115-1.2.115-1.816C29.578 6.623 22.955 0 14.792 0z"/></symbol><symbol viewBox="0 0 16 16" id="icon_full" xmlns="http://www.w3.org/2000/svg"><path d="M.557 4.836c.308 0 .557-.25.557-.557V1.903l3.59 3.588a.556.556 0 10.788-.788l-3.59-3.589h2.377a.557.557 0 100-1.114H.557A.558.558 0 000 .557V4.28c0 .307.25.557.557.557zm14.885 6.329a.557.557 0 00-.557.557v2.376l-3.7-3.7a.557.557 0 00-.788.788l3.7 3.699H11.72a.558.558 0 000 1.114h3.721a.557.557 0 00.557-.557v-3.721a.557.557 0 00-.557-.556zm-10.628-.767l-3.7 3.7V11.72a.557.557 0 10-1.114 0v3.722c0 .307.25.557.557.557H4.28a.557.557 0 100-1.114H1.903l3.699-3.7a.557.557 0 10-.788-.788zM15.443 0h-3.721a.558.558 0 000 1.114h2.375L10.51 4.703a.557.557 0 00.787.788l3.589-3.589v2.377a.557.557 0 101.114 0V.557A.556.556 0 0015.443 0z"/></symbol><symbol viewBox="0 0 30 42" id="icon_gallery" xmlns="http://www.w3.org/2000/svg"><path d="M29.818 37.932v.114a1.82 1.82 0 01-1.814 1.815H1.814A1.824 1.824 0 010 38.046v-.114a1.82 1.82 0 011.814-1.815h26.19a1.82 1.82 0 011.814 1.815z"/><path d="M6.306 33.972c1.025 0 1.868.844 1.868 1.869v4.29a1.877 1.877 0 01-1.868 1.868 1.877 1.877 0 01-1.868-1.869v-4.29c0-1.024.843-1.868 1.868-1.868zM11.385 9.74v11.067a.92.92 0 001.383.796l9.59-5.537a.924.924 0 000-1.599l-9.59-5.537a.93.93 0 00-1.383.81z"/><path d="M15.095 0C6.859 0 .182 6.677.182 14.906c0 8.228 6.677 14.905 14.906 14.905 8.228 0 14.905-6.677 14.905-14.905C29.993 6.677 23.323 0 15.095 0zm0 25.805c-6.017 0-10.893-4.877-10.893-10.893 0-6.016 4.876-10.899 10.893-10.899 6.016 0 10.892 4.876 10.892 10.893 0 6.016-4.876 10.899-10.892 10.899z"/></symbol><symbol viewBox="0 0 21 21" id="icon_gg" xmlns="http://www.w3.org/2000/svg"><g clip-path="url(#brclip0)"><path d="M19.095 7.875H17.18V9.78h-1.905v1.914h1.905v1.904h1.914v-1.905H21V9.78h-1.905V7.875zM6.563 17.063c3.787 0 6.302-2.659 6.302-6.41 0-.43-.045-.762-.107-1.093H6.563v2.256h3.725c-.152.958-1.128 2.829-3.725 2.829-2.237 0-4.064-1.853-4.064-4.145s1.826-4.146 4.064-4.146c1.28 0 2.131.546 2.615 1.012l1.781-1.71C9.812 4.582 8.335 3.938 6.563 3.938A6.56 6.56 0 000 10.5a6.56 6.56 0 006.563 6.563z"/></g><defs><clipPath id="brclip0"><path d="M0 0h21v21H0z"/></clipPath></defs></symbol><symbol viewBox="0 0 24 24" id="icon_home" xmlns="http://www.w3.org/2000/svg"><g clip-path="url(#bsclip0)"><path d="M5.422 8.28a2.422 2.422 0 100-4.844 2.422 2.422 0 000 4.844zm10.064 2.253c-.036.227-.056.49-.056.8v.376c0 1.24-.316 2.334-.945 3.278-.63.944-1.583 1.416-2.858 1.416-.718 0-1.337-.149-1.862-.445a2.95 2.95 0 01-1.18-1.18 6.259 6.259 0 01-.787-3.042v-.219c0-.37-.032-.696-.09-.983h-4.53c-.002.008-.006.018-.007.026-.026.202-.04.512-.04.931v.244c0 2.343.709 4.441 2.125 6.294.681.909 1.57 1.643 2.662 2.203 1.092.559 2.308.838 3.645.838 1.337 0 2.557-.275 3.658-.826 1.101-.55 2.002-1.271 2.701-2.163 1.434-1.888 2.151-3.986 2.151-6.294v-.27c0-.396-.025-.72-.069-.984h-4.518zm-.259-2.013l-.836.196c-.558 0-1.014-.548-1.367-1.645-.149-.447-.223-.827-.223-1.144 0-.316.056-.557.167-.725.185-.241.53-.436 1.032-.586l4.6-1.422c.484-.128.763-.194.838-.194.557 0 1.004.549 1.338 1.645.149.446.223.823.223 1.13 0 .306-.056.543-.167.71-.187.243-.53.437-1.032.586l-4.573 1.45z"/></g><defs><clipPath id="bsclip0"><path transform="translate(3 3)" d="M0 0h18v18.07H0z"/></clipPath></defs></symbol><symbol viewBox="0 0 30 37" id="icon_kinhdoanh" xmlns="http://www.w3.org/2000/svg"><path d="M8.333 16.853c.917 0 1.67.754 1.67 1.67v11.579c0 .916-.753 1.67-1.67 1.67-.916 0-1.67-.754-1.67-1.67V18.524c0-.917.754-1.67 1.67-1.67zm6.669 4.818c.917 0 1.67.754 1.67 1.67v6.76c0 .917-.753 1.67-1.67 1.67-.916 0-1.67-.753-1.67-1.67v-6.753a1.671 1.671 0 011.67-1.677zm-13.332 0c.917 0 1.67.754 1.67 1.67v6.76a1.669 1.669 0 01-3.34.006v-6.76a1.68 1.68 0 011.67-1.676zm19.996-9.636c.923 0 1.67.784 1.67 1.749v16.251c0 .959-.753 1.749-1.67 1.749-.916 0-1.67-.784-1.67-1.749V13.778c-.006-.959.748-1.743 1.67-1.743zm6.597-4.287h.133c.88 0 1.604.723 1.604 1.604v20.816c0 .88-.724 1.604-1.604 1.604h-.133c-.88 0-1.604-.724-1.604-1.604V9.358c0-.887.718-1.61 1.604-1.61zM29.867 35.3c0 .916-.753 1.67-1.67 1.67H1.803c-.916 0-1.67-.754-1.67-1.67 0-.917.754-1.67 1.67-1.67h26.388c.923 0 1.677.747 1.677 1.67zM1.839 15.611c2.394-2.05 4.782-4.1 7.176-6.15h-.85c2.05 1.88 4.1 3.756 6.15 5.637.308.284.712.2.947-.12 1.875-2.569 3.75-5.144 5.632-7.719.235-.32.47-.645.706-.965.223-.307.38-.597.723-.777.706-.374 1.405-.754 2.105-1.134 1.405-.754 2.804-1.514 4.209-2.267.681-.368.072-1.411-.61-1.044-1.459.79-2.924 1.574-4.383 2.364-.7.38-1.417.736-2.105 1.134-.639.374-1.073 1.242-1.507 1.839-1.936 2.653-3.872 5.307-5.807 7.954.313-.042.633-.079.946-.12-2.05-1.882-4.1-3.758-6.15-5.639-.254-.235-.597-.223-.85 0-2.395 2.05-4.782 4.1-7.176 6.15-.597.507.259 1.358.844.857z"/></symbol><symbol viewBox="0 0 16 12" id="icon_live" xmlns="http://www.w3.org/2000/svg"><g clip-path="url(#buclip0)"><path d="M6.854 4.83a1.679 1.679 0 000 2.34 1.601 1.601 0 002.296 0 1.678 1.678 0 000-2.34 1.601 1.601 0 00-2.296 0zm5.056-2.278a.76.76 0 00-1.09 0 .801.801 0 000 1.116A3.31 3.31 0 0111.768 6a3.31 3.31 0 01-.948 2.333.8.8 0 000 1.115.76.76 0 001.09 0A4.893 4.893 0 0013.31 6a4.892 4.892 0 00-1.4-3.448z"/><path d="M13.656.23a.76.76 0 00-1.09.001.801.801 0 000 1.116A6.605 6.605 0 0114.456 6c0 1.758-.671 3.41-1.89 4.654a.801.801 0 000 1.115.762.762 0 001.09.001A8.189 8.189 0 0016 6 8.19 8.19 0 0013.657.23zM5.179 2.552a.76.76 0 00-1.091-.001 4.894 4.894 0 00-1.4 3.448c0 1.303.497 2.528 1.4 3.45a.762.762 0 001.09-.002.8.8 0 000-1.115A3.31 3.31 0 014.23 6c0-.881.337-1.71.948-2.333a.802.802 0 000-1.115z"/><path d="M1.543 6c0-1.758.671-3.41 1.89-4.654a.8.8 0 000-1.115.76.76 0 00-1.09 0A8.189 8.189 0 000 6c0 2.18.832 4.229 2.343 5.77a.76.76 0 001.09-.001.801.801 0 000-1.116A6.606 6.606 0 011.543 6z"/></g><defs><clipPath id="buclip0"><path d="M0 0h16v12H0z"/></clipPath></defs></symbol><symbol viewBox="0 0 30 36" id="icon_nguoifpt" xmlns="http://www.w3.org/2000/svg"><path d="M30 34.003c0 .925-.76 1.685-1.685 1.685H1.685C.76 35.688 0 34.928 0 34.003s.76-1.685 1.685-1.685H28.31A1.686 1.686 0 0130 34.003zM4.314 30.195a1.855 1.855 0 001.855-1.856 8.827 8.827 0 018.828-8.828 8.823 8.823 0 018.828 8.828 1.855 1.855 0 103.711 0c0-6.923-5.615-12.539-12.539-12.539-6.924 0-12.539 5.61-12.539 12.533a1.86 1.86 0 001.856 1.862zM14.996 12.934a6.467 6.467 0 100-12.934 6.467 6.467 0 000 12.934z"/></symbol><symbol viewBox="0 0 16 16" id="icon_picture" xmlns="http://www.w3.org/2000/svg"><path d="M14.5 0h-13A1.5 1.5 0 000 1.5v13A1.5 1.5 0 001.5 16h13a1.5 1.5 0 001.5-1.5v-13A1.5 1.5 0 0014.5 0zm.5 9.795L12.855 7.65a.5.5 0 00-.705 0L9.5 10.295 6.355 7.15a.5.5 0 00-.705 0L1 11.795V1.5a.5.5 0 01.5-.5h13a.5.5 0 01.5.5v8.295z"/><path d="M9 2.5a2 2 0 100 4 2 2 0 000-4zm0 3a1 1 0 110-2 1 1 0 010 2z"/></symbol><symbol viewBox="0 0 30 45" id="icon_podcast" xmlns="http://www.w3.org/2000/svg"><path d="M3.831 20.549c1.085 0 1.957.88 1.957 1.957a9.3 9.3 0 0018.6 0 1.957 1.957 0 113.913 0c0 7.297-5.916 13.22-13.22 13.22-7.306 0-13.207-5.916-13.207-13.22 0-1.078.872-1.957 1.957-1.957z"/><path d="M15.11 44.412h-.182a2.014 2.014 0 01-2.01-2.01v-7.54c0-1.107.903-2.01 2.01-2.01h.182c1.108 0 2.01.903 2.01 2.01v7.54c0 1.1-.902 2.01-2.01 2.01z"/><path d="M28.165 42.303a2.11 2.11 0 01-2.101 2.102H3.975a2.11 2.11 0 01-2.101-2.102 2.11 2.11 0 012.101-2.1h22.081c1.16 0 2.109.948 2.109 2.1zM15.004 0a2.11 2.11 0 012.1 2.101v20.776a2.11 2.11 0 01-2.1 2.102 2.11 2.11 0 01-2.102-2.102V2.101A2.101 2.101 0 0115.004 0zm6.448 4.43a2.11 2.11 0 012.1 2.101v11.917a2.11 2.11 0 01-2.1 2.1 2.11 2.11 0 01-2.101-2.1V6.53a2.101 2.101 0 012.1-2.101zM8.548 6.364a2.11 2.11 0 012.101 2.101v8.048a2.11 2.11 0 01-2.1 2.101 2.11 2.11 0 01-2.102-2.1v-8.05a2.11 2.11 0 012.101-2.101zm19.351 3.869a2.11 2.11 0 012.101 2.1v.312a2.11 2.11 0 01-2.101 2.1 2.11 2.11 0 01-2.101-2.1v-.311a2.1 2.1 0 012.101-2.101zm-25.798 0a2.11 2.11 0 012.101 2.1v.312a2.11 2.11 0 01-2.1 2.1A2.11 2.11 0 010 12.646v-.311a2.11 2.11 0 012.101-2.101z"/></symbol><symbol viewBox="0 0 16 12" id="icon_upload" xmlns="http://www.w3.org/2000/svg"><g clip-path="url(#byclip0)"><path d="M13.327 3.976C12.587 1.162 9.6-.547 6.654.159 4.352.711 2.681 2.612 2.508 4.874.874 5.13-.232 6.606.036 8.168c.24 1.388 1.5 2.405 2.972 2.4h2.5v-.956h-2.5c-1.105 0-2-.855-2-1.91 0-1.056.895-1.911 2-1.911a.49.49 0 00.5-.478c-.003-2.374 2.01-4.3 4.495-4.303 2.151-.002 4.003 1.451 4.419 3.467a.49.49 0 00.425.383c1.367.185 2.317 1.395 2.122 2.7-.175 1.173-1.223 2.046-2.462 2.052h-2v.955h2c1.933-.006 3.495-1.507 3.489-3.353-.005-1.537-1.106-2.873-2.67-3.238z"/><path d="M7.652 5.929l-2 1.91.705.674 1.15-1.094V12h1V7.42l1.145 1.094.705-.674-2-1.91a.517.517 0 00-.705 0z"/></g><defs><clipPath id="byclip0"><path d="M0 0h16v12H0z"/></clipPath></defs></symbol><symbol viewBox="0 0 30 52" id="icon_vanhoa" xmlns="http://www.w3.org/2000/svg"><g clip-path="url(#bzclip0)"><path d="M30 48.757a2.408 2.408 0 01-2.398 2.397H2.398A2.403 2.403 0 010 48.756a2.409 2.409 0 012.398-2.397h25.196A2.41 2.41 0 0130 48.757zm0-46.359a2.409 2.409 0 01-2.398 2.397H2.398C1.082 4.804 0 3.722 0 2.398A2.409 2.409 0 012.398 0h25.196A2.41 2.41 0 0130 2.398zM25.612 40.94a2.64 2.64 0 00-2.64-2.64c-6.933 0-12.56-5.617-12.56-12.558 0-6.942 5.618-12.56 12.56-12.56a2.64 2.64 0 100-5.28c-9.85 0-17.84 7.99-17.84 17.84s7.99 17.839 17.84 17.839a2.645 2.645 0 002.64-2.64z"/><path d="M4.389 40.94a2.64 2.64 0 012.64-2.64c6.933 0 12.559-5.617 12.559-12.558 0-6.942-5.618-12.56-12.56-12.56a2.64 2.64 0 110-5.28c9.85 0 17.84 7.99 17.84 17.84S16.888 43.58 7.028 43.58a2.645 2.645 0 01-2.64-2.64z"/></g><defs><clipPath id="bzclip0"><path d="M0 0h30v52H0z"/></clipPath></defs></symbol><symbol viewBox="0 0 66 20" id="longform" xmlns="http://www.w3.org/2000/svg"><path d="M38.082.195l.768 1.927h-1.43c-.931 0-1.396.543-1.396 1.65V5.3h2.058l.768 1.922h-2.826v6.984h-1.942V3.793c0-2.57 1.376-3.598 3.339-3.598h.66zM25.279 14.901c.061 1.4.809 2.279 2.164 2.279 1.437 0 2.164-.963 2.164-2.49v-1.651c-.062.063-.16.123-.304.229-.242.165-1.236.585-2.185.585-1.256 0-2.307-.437-3.157-1.315-.85-.9-1.273-1.965-1.273-3.242 0-1.256.422-2.32 1.273-3.22.87-.9 1.921-1.337 3.157-1.337 1.195 0 2.247.42 3.117 1.235.87.815 1.314 1.943 1.314 3.39v5.334c0 1.315-.386 2.363-1.174 3.135-.768.772-1.741 1.171-2.936 1.171-1.154 0-2.107-.377-2.875-1.107-.768-.734-1.174-1.714-1.236-2.991h1.95V14.9zm1.84-2.97c1.396 0 2.488-1.107 2.488-2.635 0-1.506-1.051-2.635-2.489-2.635-1.396 0-2.488 1.13-2.488 2.635 0 1.528 1.092 2.635 2.488 2.635zM0 14.01V0l1.942 1.587V14.01H0zm61.688-5.193v5.435h-1.943V8.817c0-1.108-.406-1.65-1.195-1.65-.788 0-1.174.542-1.174 1.65v5.435h-1.942V8.817c0-2.342 1.273-3.577 3.055-3.577.99 0 1.72.378 2.226 1.129.525-.751 1.277-1.129 2.266-1.129 1.762 0 3.015 1.256 3.015 3.577v5.435h-1.943V8.817c0-1.108-.386-1.65-1.174-1.65-.785 0-1.191.542-1.191 1.65zm-46.046 5.155h-1.943V9.165c0-1.422.366-2.47 1.072-3.157.727-.692 1.598-1.044 2.591-1.044.99 0 1.86.357 2.591 1.044.727.691 1.093 1.756 1.093 3.157v4.811h-1.943V9.165c0-1.485-.69-2.279-1.74-2.279-1.052 0-1.721.772-1.721 2.279v4.807zM4.692 6.246c.87-.9 1.901-1.337 3.137-1.337 1.216 0 2.247.442 3.117 1.337.87.9 1.294 1.964 1.294 3.22 0 1.277-.423 2.342-1.294 3.242-.87.878-1.901 1.32-3.117 1.32-1.236 0-2.266-.438-3.137-1.32-.87-.9-1.294-1.965-1.294-3.242 0-1.256.423-2.32 1.294-3.22zm.649 3.22c0 .773.242 1.4.706 1.905.485.48 1.072.73 1.782.73s1.294-.25 1.762-.73c.485-.5.727-1.128.727-1.905 0-.772-.242-1.4-.727-1.884-.464-.5-1.051-.75-1.762-.75-.71 0-1.293.25-1.782.75-.464.484-.706 1.112-.706 1.884zm35.445-2.94c.87-.9 1.901-1.337 3.137-1.337 1.216 0 2.246.437 3.117 1.337.87.9 1.294 1.964 1.294 3.22 0 1.277-.428 2.342-1.294 3.242-.87.878-1.901 1.32-3.117 1.32-1.236 0-2.267-.438-3.137-1.32-.87-.9-1.294-1.965-1.294-3.242 0-1.252.423-2.32 1.294-3.22zm.649 3.22c0 .772.242 1.4.706 1.905.485.48 1.072.73 1.782.73s1.294-.25 1.762-.73c.484-.5.727-1.128.727-1.905 0-.772-.243-1.4-.727-1.884-.464-.5-1.051-.75-1.762-.75-.706 0-1.293.25-1.782.75-.464.484-.706 1.112-.706 1.884zM51.871 14.2H49.95V8.89c0-2.572 1.396-3.598 3.277-3.598h.464v1.922h-.365c-.974 0-1.458.564-1.458 1.671v5.317h.004z"/></symbol><symbol viewBox="0 0 10 18" id="up" xmlns="http://www.w3.org/2000/svg"><path d="M4.502.206L.845 3.882a.703.703 0 00.997.992l2.455-2.467v14.89a.703.703 0 001.406 0V2.407l2.455 2.467a.703.703 0 10.997-.992L5.498.207a.704.704 0 00-.996 0z"/></symbol></svg>