<svg aria-hidden="true" style="position: absolute; width: 0; height: 0; overflow: hidden;" version="1.1" xmlns="http://www.w3.org/2000/svg" xmlns:xlink="http://www.w3.org/1999/xlink">
<defs>
<symbol id="active-40" viewBox="0 0 32 32">
<title>active-40</title>
<path d="M24.848 11.205l-10.848-1.205v-7c0-1.657-1.343-3-3-3s-3 1.343-3 3v15h-2v-4h-1c-1.657 0-3 1.343-3 3v3.667c0 2.164 0.702 4.269 2 6l4 5.333h18l3.932-13.107c1.076-3.588-1.361-7.274-5.084-7.687z"></path>
</symbol>
<symbol id="alarm-delete" viewBox="0 0 32 32">
<title>alarm-delete</title>
<path d="M20 28h-8c0 2.209 1.791 4 4 4s4-1.791 4-4v0z"></path>
<path d="M30.2 25.96c1.017-0.093 1.808-0.943 1.808-1.976 0-1.096-0.888-1.984-1.984-1.984-0.008 0-0.017 0-0.025 0h-0.999c-1.767-1.434-2.911-3.575-3-5.986l-0-0.014v-6c0-0.010 0-0.021 0-0.033 0-5.504-4.462-9.966-9.966-9.966-3.207 0-6.060 1.515-7.883 3.868l-0.017 0.023z"></path>
<path d="M6 10.242v5.758c-0.089 2.425-1.233 4.566-2.985 5.988l-0.015 0.012h-1c-1.105 0-2 0.895-2 2s0.895 2 2 2v0h19.758z"></path>
<path d="M30 31c-0.001 0-0.001 0-0.002 0-0.276 0-0.525-0.112-0.706-0.292l-28-28c-0.181-0.181-0.293-0.431-0.293-0.708 0-0.553 0.448-1.001 1.001-1.001 0.276 0 0.527 0.112 0.708 0.293v0l28 28c0.181 0.181 0.294 0.431 0.294 0.708 0 0.552-0.448 1-1 1-0.001 0-0.001 0-0.002 0h0z"></path>
</symbol>
<symbol id="alert-circle-i" viewBox="0 0 32 32">
<title>alert-circle-i</title>
<path d="M16 0c-8.8 0-16 7.2-16 16s7.2 16 16 16 16-7.2 16-16-7.2-16-16-16zM18 24h-4v-10h4v10zM16 12c-1.2 0-2-0.8-2-2s0.8-2 2-2 2 0.8 2 2-0.8 2-2 2z"></path>
</symbol>
<symbol id="alert" viewBox="0 0 32 32">
<title>alert</title>
<path d="M30.432 27.058l-12.668-23.75c-0.752-1.412-2.776-1.412-3.53 0l-12.666 23.75c-0.71 1.332 0.256 2.942 1.766 2.942h25.334c1.508 0 2.474-1.61 1.764-2.942zM16 26c-1.104 0-2-0.896-2-2s0.896-2 2-2 2 0.896 2 2c0 1.104-0.896 2-2 2zM18 20h-4v-8h4v8z"></path>
</symbol>
<symbol id="align-center" viewBox="0 0 32 32">
<title>align-center</title>
<path d="M0 2h32v4h-32v-4z"></path>
<path d="M6 10h20v4h-20v-4z"></path>
<path d="M0 18h32v4h-32v-4z"></path>
<path d="M6 26h20v4h-20v-4z"></path>
</symbol>
<symbol id="align-justify" viewBox="0 0 32 32">
<title>align-justify</title>
<path d="M0 2h32v4h-32v-4z"></path>
<path d="M0 10h32v4h-32v-4z"></path>
<path d="M0 18h32v4h-32v-4z"></path>
<path d="M0 26h32v4h-32v-4z"></path>
</symbol>
<symbol id="align-left-2" viewBox="0 0 32 32">
<title>align-left-2</title>
<path d="M0 2h32v4h-32v-4z"></path>
<path d="M0 10h20v4h-20v-4z"></path>
<path d="M0 18h32v4h-32v-4z"></path>
<path d="M0 26h20v4h-20v-4z"></path>
</symbol>
<symbol id="align-right-2" viewBox="0 0 32 32">
<title>align-right-2</title>
<path d="M0 2h32v4h-32v-4z"></path>
<path d="M12 10h20v4h-20v-4z"></path>
<path d="M0 18h32v4h-32v-4z"></path>
<path d="M12 26h20v4h-20v-4z"></path>
</symbol>
<symbol id="attach-86" viewBox="0 0 32 32">
<title>attach-86</title>
<path d="M10 10v8c0 3.4 2.6 6 6 6s6-2.6 6-6v-9c0-5-4-9-9-9s-9 4-9 9v11c0 6.6 5.4 12 12 12s12-5.4 12-12v-12h-4v12c0 4.4-3.6 8-8 8s-8-3.6-8-8v-11c0-2.8 2.2-5 5-5s5 2.2 5 5v9c0 1.2-0.8 2-2 2s-2-0.8-2-2v-8h-4z"></path>
</symbol>
<symbol id="bell-53" viewBox="0 0 32 32">
<title>bell-53</title>
<path d="M20 28h-8c0 2.2 1.8 4 4 4s4-1.8 4-4z"></path>
<path d="M30 22h-1c-1.4-1.4-3-3.4-3-6v-6c0-5.6-4.4-10-10-10s-10 4.4-10 10v6c0 2.6-1.6 4.6-3 6h-1c-1.2 0-2 0.8-2 2s0.8 2 2 2h28c1.2 0 2-0.8 2-2s-0.8-2-2-2z"></path>
</symbol>
<symbol id="bold" viewBox="0 0 32 32">
<title>bold</title>
<path d="M23.122 14.633c1.93-1.415 3.124-3.776 2.835-6.415-0.395-3.607-3.671-6.218-7.299-6.218h-14.658v2l2.894 1.447c0.678 0.339 1.106 1.031 1.106 1.789v17.528c0 0.758-0.428 1.45-1.106 1.789l-2.894 1.447v2h15.645c4.208 0 7.961-3.095 8.324-7.287 0.313-3.612-1.776-6.777-4.847-8.080zM14 6h2c2.209 0 4 1.791 4 4s-1.791 4-4 4h-2v-8zM18 26h-4v-8h4c2.209 0 4 1.791 4 4s-1.791 4-4 4z"></path>
</symbol>
<symbol id="bookmark-2" viewBox="0 0 32 32">
<title>bookmark-2</title>
<path d="M8 0c-2.2 0-4 1.8-4 4v28l12-6 12 6v-28c0-2.2-1.8-4-4-4h-16z"></path>
</symbol>
<symbol id="bulb-62" viewBox="0 0 32 32">
<title>bulb-62</title>
<path d="M10.667 22.747v3.92h10.667v-3.92c4.079-2.019 6.667-6.143 6.667-10.747 0-6.617-5.384-12-12-12s-12 5.383-12 12c0 4.603 2.588 8.728 6.667 10.747zM10.667 10.115l2.667 2.667 2.667-2.667 2.667 2.667 2.667-2.667 1.885 1.885-4.552 4.552-2.667-2.667-2.667 2.667-4.552-4.552 1.885-1.885z"></path>
<path d="M10.667 29.333v1.333c0 0.737 0.597 1.333 1.333 1.333h8c0.736 0 1.333-0.596 1.333-1.333v-1.333h-10.667z"></path>
</symbol>
<symbol id="bullet-list-67" viewBox="0 0 32 32">
<title>bullet-list-67</title>
<path d="M8 4c0 2.209-1.791 4-4 4s-4-1.791-4-4c0-2.209 1.791-4 4-4s4 1.791 4 4z"></path>
<path d="M12 2h20v4h-20v-4z"></path>
<path d="M8 16c0 2.209-1.791 4-4 4s-4-1.791-4-4c0-2.209 1.791-4 4-4s4 1.791 4 4z"></path>
<path d="M12 14h20v4h-20v-4z"></path>
<path d="M8 28c0 2.209-1.791 4-4 4s-4-1.791-4-4c0-2.209 1.791-4 4-4s4 1.791 4 4z"></path>
<path d="M12 26h20v4h-20v-4z"></path>
</symbol>
<symbol id="bullet-list-69" viewBox="0 0 32 32">
<title>bullet-list-69</title>
<path d="M12 2h20v4h-20v-4z"></path>
<path d="M12 14h20v4h-20v-4z"></path>
<path d="M12 26h20v4h-20v-4z"></path>
<path d="M6 0h-4c-1.2 0-2 0.8-2 2v4c0 1.2 0.8 2 2 2h4c1.2 0 2-0.8 2-2v-4c0-1.2-0.8-2-2-2z"></path>
<path d="M6 12h-4c-1.2 0-2 0.8-2 2v4c0 1.2 0.8 2 2 2h4c1.2 0 2-0.8 2-2v-4c0-1.2-0.8-2-2-2z"></path>
<path d="M6 24h-4c-1.2 0-2 0.8-2 2v4c0 1.2 0.8 2 2 2h4c1.2 0 2-0.8 2-2v-4c0-1.2-0.8-2-2-2z"></path>
</symbol>
<symbol id="bullet-list-70" viewBox="0 0 32 32">
<title>bullet-list-70</title>
<path d="M30 0h-16c-1.2 0-2 0.8-2 2v4c0 1.2 0.8 2 2 2h16c1.2 0 2-0.8 2-2v-4c0-1.2-0.8-2-2-2z"></path>
<path d="M30 12h-16c-1.2 0-2 0.8-2 2v4c0 1.2 0.8 2 2 2h16c1.2 0 2-0.8 2-2v-4c0-1.2-0.8-2-2-2z"></path>
<path d="M30 24h-16c-1.2 0-2 0.8-2 2v4c0 1.2 0.8 2 2 2h16c1.2 0 2-0.8 2-2v-4c0-1.2-0.8-2-2-2z"></path>
<path d="M6 0h-4c-1.2 0-2 0.8-2 2v4c0 1.2 0.8 2 2 2h4c1.2 0 2-0.8 2-2v-4c0-1.2-0.8-2-2-2z"></path>
<path d="M6 12h-4c-1.2 0-2 0.8-2 2v4c0 1.2 0.8 2 2 2h4c1.2 0 2-0.8 2-2v-4c0-1.2-0.8-2-2-2z"></path>
<path d="M6 24h-4c-1.2 0-2 0.8-2 2v4c0 1.2 0.8 2 2 2h4c1.2 0 2-0.8 2-2v-4c0-1.2-0.8-2-2-2z"></path>
</symbol>
<symbol id="button-pause" viewBox="0 0 32 32">
<title>button-pause</title>
<path d="M10 2h-6c-1.2 0-2 0.8-2 2v24c0 1.2 0.8 2 2 2h6c1.2 0 2-0.8 2-2v-24c0-1.2-0.8-2-2-2z"></path>
<path d="M28 2h-6c-1.2 0-2 0.8-2 2v24c0 1.2 0.8 2 2 2h6c1.2 0 2-0.8 2-2v-24c0-1.2-0.8-2-2-2z"></path>
</symbol>
<symbol id="button-play" viewBox="0 0 32 32">
<title>button-play</title>
<path d="M27.2 14.4l-20-14c-1.4-1-3.2 0-3.2 1.6v28c0 1.6 1.8 2.6 3.2 1.6l20-14c1-0.8 1-2.4 0-3.2z"></path>
</symbol>
<symbol id="button-record" viewBox="0 0 32 32">
<title>button-record</title>
<path d="M30 16c0 7.732-6.268 14-14 14s-14-6.268-14-14c0-7.732 6.268-14 14-14s14 6.268 14 14z"></path>
</symbol>
<symbol id="button-stop" viewBox="0 0 32 32">
<title>button-stop</title>
<path d="M28 2h-24c-1.2 0-2 0.8-2 2v24c0 1.2 0.8 2 2 2h24c1.2 0 2-0.8 2-2v-24c0-1.2-0.8-2-2-2z"></path>
</symbol>
<symbol id="calendar-grid-61" viewBox="0 0 32 32">
<title>calendar-grid-61</title>
<path d="M30 4h-4v-4h-6v4h-8v-4h-6v4h-4c-1.104 0-2 0.896-2 2v24c0 1.104 0.896 2 2 2h28c1.104 0 2-0.896 2-2v-24c0-1.104-0.896-2-2-2zM28 28h-24v-18h24v18z"></path>
<path d="M8 14h4v4h-4v-4z"></path>
<path d="M14 14h4v4h-4v-4z"></path>
<path d="M8 20h4v4h-4v-4z"></path>
<path d="M14 20h4v4h-4v-4z"></path>
<path d="M20 14h4v4h-4v-4z"></path>
<path d="M20 20h4v4h-4v-4z"></path>
</symbol>
<symbol id="camera-19" viewBox="0 0 32 32">
<title>camera-19</title>
<path d="M30 8h-5l-3.4-5.2c-0.4-0.4-1-0.8-1.6-0.8h-8c-0.6 0-1.2 0.4-1.6 0.8l-3.4 5.2h-5c-1.2 0-2 0.8-2 2v18c0 1.2 0.8 2 2 2h28c1.2 0 2-0.8 2-2v-18c0-1.2-0.8-2-2-2zM16 24c-3.4 0-6-2.6-6-6s2.6-6 6-6 6 2.6 6 6-2.6 6-6 6z"></path>
</symbol>
<symbol id="caps-small" viewBox="0 0 32 32">
<title>caps-small</title>
<path d="M12 2h-12v6h2l2-2h6v22l-4 2v2h12v-2l-4-2v-22h6l2 2h2v-6z"></path>
<path d="M16 12v6h2l2-2h2v12l-2 2v2h8v-2l-2-2v-12h2l2 2h2v-6z"></path>
</symbol>
<symbol id="chart-bar-33" viewBox="0 0 32 32">
<title>chart-bar-33</title>
<path d="M18.667 17.333h-5.333c-0.736 0-1.333 0.597-1.333 1.333v12c0 0.736 0.597 1.333 1.333 1.333h5.333c0.736 0 1.333-0.597 1.333-1.333v-12c0-0.736-0.597-1.333-1.333-1.333z"></path>
<path d="M6.667 22.667h-5.333c-0.736 0-1.333 0.597-1.333 1.333v6.667c0 0.736 0.597 1.333 1.333 1.333h5.333c0.736 0 1.333-0.597 1.333-1.333v-6.667c0-0.736-0.597-1.333-1.333-1.333z"></path>
<path d="M30.667 12h-5.333c-0.736 0-1.333 0.597-1.333 1.333v17.333c0 0.736 0.597 1.333 1.333 1.333h5.333c0.736 0 1.333-0.597 1.333-1.333v-17.333c0-0.736-0.597-1.333-1.333-1.333z"></path>
<path d="M16.943 12.943l8.391-8.391v4.781h2.667v-8c0-0.736-0.597-1.333-1.333-1.333h-8v2.667h4.781l-7.448 7.448-4.391-4.391c-0.521-0.521-1.364-0.521-1.885 0l-6.667 6.667 1.885 1.885 5.724-5.724 4.391 4.391c0.521 0.521 1.364 0.521 1.885 0z"></path>
</symbol>
<symbol id="chat-45" viewBox="0 0 32 32">
<title>chat-45</title>
<path d="M2 0h28c1.104 0 2 0.896 2 2v20c0 1.104-0.896 2-2 2h-10l-12 8v-8h-6c-1.104 0-2-0.896-2-2v-20c0-1.104 0.896-2 2-2z"></path>
</symbol>
<symbol id="chat-46" viewBox="0 0 32 32">
<title>chat-46</title>
<path d="M30 8h-2v12c0 1.104-0.896 2-2 2h-12.344l-3.656 4h10l6 6v-6h4c1.104 0 2-0.896 2-2v-14c0-1.104-0.896-2-2-2z"></path>
<path d="M2 0h20c1.104 0 2 0.896 2 2v14c0 1.104-0.896 2-2 2h-10l-6 6v-6h-4c-1.104 0-2-0.896-2-2v-14c0-1.104 0.896-2 2-2z"></path>
</symbol>
<symbol id="check-2" viewBox="0 0 32 32">
<title>check-2</title>
<path d="M28.6 4.6l-18.6 18.6-6.6-6.6c-0.8-0.8-2-0.8-2.8 0s-0.8 2 0 2.8l8 8c0.4 0.4 0.8 0.6 1.4 0.6s1-0.2 1.4-0.6l20-20c0.8-0.8 0.8-2 0-2.8s-2-0.8-2.8 0z"></path>
</symbol>
<symbol id="check-bold-2" viewBox="0 0 32 32">
<title>check-bold-2</title>
<path d="M11.2 16.8l-8-4.8-3.2 3.2 11.2 12.8 20.8-20.8-3.2-3.2z"></path>
</symbol>
<symbol id="check-bold" viewBox="0 0 32 32">
<title>check-bold</title>
<path d="M11.2 16.8l-8-4.8-3.2 3.2 11.2 12.8 20.8-20.8-3.2-3.2z"></path>
</symbol>
<symbol id="check-circle-08-2" viewBox="0 0 32 32">
<title>check-circle-08-2</title>
<path d="M16 0c-8.8 0-16 7.2-16 16s7.2 16 16 16 16-7.2 16-16-7.2-16-16-16zM14 22.8l-6.8-6.8 2.8-2.8 4 4 8-8 2.8 2.8-10.8 10.8z"></path>
</symbol>
<symbol id="check-circle-08" viewBox="0 0 32 32">
<title>check-circle-08</title>
<path d="M16 0c-8.8 0-16 7.2-16 16s7.2 16 16 16 16-7.2 16-16-7.2-16-16-16zM14 22.8l-6.8-6.8 2.8-2.8 4 4 8-8 2.8 2.8-10.8 10.8z"></path>
</symbol>
<symbol id="check-simple-2" viewBox="0 0 32 32">
<title>check-simple-2</title>
<path d="M11.2 19.2l-6.4-6.4-4.8 4.8 11.2 11.2 20.8-20.8-4.8-4.8z"></path>
</symbol>
<symbol id="check-simple" viewBox="0 0 32 32">
<title>check-simple</title>
<path d="M11.2 19.2l-6.4-6.4-4.8 4.8 11.2 11.2 20.8-20.8-4.8-4.8z"></path>
</symbol>
<symbol id="check-square-09-2" viewBox="0 0 32 32">
<title>check-square-09-2</title>
<path d="M28 0h-24c-2.2 0-4 1.8-4 4v24c0 2.2 1.8 4 4 4h24c2.2 0 4-1.8 4-4v-24c0-2.2-1.8-4-4-4zM14 22.8l-6.8-6.8 2.8-2.8 4 4 8-8 2.8 2.8-10.8 10.8z"></path>
</symbol>
<symbol id="check-square-09" viewBox="0 0 32 32">
<title>check-square-09</title>
<path d="M28 0h-24c-2.2 0-4 1.8-4 4v24c0 2.2 1.8 4 4 4h24c2.2 0 4-1.8 4-4v-24c0-2.2-1.8-4-4-4zM14 22.8l-6.8-6.8 2.8-2.8 4 4 8-8 2.8 2.8-10.8 10.8z"></path>
</symbol>
<symbol id="chungta-anchoi" viewBox="0 0 32 32">
<title>chungta-anchoi</title>
<path d="M31.703 7.823l-7.072-6.983c-0.175-0.173-0.414-0.282-0.679-0.288l-0.001-0-9.936-0.237c-0.009-0-0.020-0-0.030-0-0.552 0-1 0.448-1 1 0 0.414 0.251 0.768 0.609 0.921l0.007 0.002 7.552 3.205-3.313 7.604h-2.719l-2.56-7.583c-0.114-0.328-0.384-0.575-0.719-0.655l-0.007-0.001-2.344-0.536c-0.052-0.010-0.113-0.015-0.174-0.015-0.554 0-1.003 0.449-1.003 1.003 0 0.456 0.305 0.841 0.722 0.963l0.007 0.002 1.799 0.412 2.165 6.412h-1.987l-5.8-9.996c-0.177-0.3-0.498-0.499-0.866-0.499-0 0-0 0-0.001 0h-3.352c-0.553 0-1.001 0.448-1.001 1.001s0.448 1.001 1.001 1.001v0h2.776l4.928 8.492h-4.853c-0.354 0-0.665 0.184-0.843 0.461l-0.002 0.004c-1.153 1.79-1.837 3.976-1.837 6.322 0 0.005 0 0.010 0 0.015v-0.001c0 6.528 5.311 11.837 11.837 11.837s11.837-5.311 11.837-11.837c0-0.003 0-0.007 0-0.011 0-2.347-0.685-4.534-1.866-6.372l0.028 0.047c-0.18-0.281-0.491-0.465-0.845-0.465h-2.14l2.973-6.821 7.612 3.232c0.116 0.050 0.25 0.080 0.392 0.080 0.345 0 0.649-0.175 0.829-0.44l0.002-0.004c0.107-0.157 0.171-0.351 0.171-0.559 0-0.279-0.114-0.531-0.297-0.712l-0-0z"></path>
</symbol>
<symbol id="chungta-gocnhin" viewBox="0 0 32 32">
<title>chungta-gocnhin</title>
<path d="M18.797 31.413l-14.003-14.004c-0.362-0.362-0.586-0.862-0.586-1.415s0.224-1.053 0.586-1.415l13.993-13.993c0.362-0.362 0.862-0.586 1.415-0.586 1.105 0 2.001 0.896 2.001 2.001 0 0.552-0.224 1.053-0.586 1.415l-12.579 12.579 12.589 12.589c0.329 0.356 0.532 0.834 0.532 1.359 0 1.106-0.897 2.003-2.003 2.003-0.525 0-1.004-0.202-1.361-0.533l0.001 0.001z"></path>
<path d="M20.88 9.813l-6.183 6.183 6.183 6.183c1.582-1.582 2.561-3.768 2.561-6.183s-0.979-4.6-2.561-6.183v0z"></path>
</symbol>
<symbol id="chungta-play" viewBox="0 0 32 32">
<title>chungta-play</title>
<path d="M25.213 12.773c-2.387-1.813-14.667-10.76-14.667-10.76s-5.867-5.133-5.867 0.973v26.347s0.293 5.133 5.867 0.973l15.64-11.64s3.147-2.787-0.973-5.893zM20.213 17.227s-6.2 4.24-7.747 5.44c-2.667 2.040-2.933-0.453-2.933-0.453v-11.76c0-2.813 2.413-1.333 2.413-1.333s7.107 4.96 8.227 5.867c0.392 0.237 0.65 0.661 0.65 1.145 0 0.219-0.053 0.427-0.147 0.609l0.003-0.007c-0.122 0.213-0.294 0.385-0.5 0.503l-0.007 0.003z"></path>
</symbol>
<symbol id="circle-bold-add" viewBox="0 0 32 32">
<title>circle-bold-add</title>
<path d="M18 8h-4v6h-6v4h6v6h4v-6h6v-4h-6z"></path>
<path d="M16 0c-8.8 0-16 7.2-16 16s7.2 16 16 16 16-7.2 16-16-7.2-16-16-16zM16 28c-6.6 0-12-5.4-12-12s5.4-12 12-12 12 5.4 12 12-5.4 12-12 12z"></path>
</symbol>
<symbol id="circle-bold-delete-2" viewBox="0 0 32 32">
<title>circle-bold-delete-2</title>
<path d="M8 14h16v4h-16v-4z"></path>
<path d="M16 0c-8.8 0-16 7.2-16 16s7.2 16 16 16 16-7.2 16-16-7.2-16-16-16zM16 28c-6.6 0-12-5.4-12-12s5.4-12 12-12 12 5.4 12 12-5.4 12-12 12z"></path>
</symbol>
<symbol id="circle-bold-delete" viewBox="0 0 32 32">
<title>circle-bold-delete</title>
<path d="M8 14h16v4h-16v-4z"></path>
<path d="M16 0c-8.8 0-16 7.2-16 16s7.2 16 16 16 16-7.2 16-16-7.2-16-16-16zM16 28c-6.6 0-12-5.4-12-12s5.4-12 12-12 12 5.4 12 12-5.4 12-12 12z"></path>
</symbol>
<symbol id="circle-bold-remove" viewBox="0 0 32 32">
<title>circle-bold-remove</title>
<path d="M20.2 9l-4.2 4.2-4.2-4.2-2.8 2.8 4.2 4.2-4.2 4.2 2.8 2.8 4.2-4.2 4.2 4.2 2.8-2.8-4.2-4.2 4.2-4.2z"></path>
<path d="M16 0c-8.8 0-16 7.2-16 16s7.2 16 16 16 16-7.2 16-16-7.2-16-16-16zM16 28c-6.6 0-12-5.4-12-12s5.4-12 12-12 12 5.4 12 12-5.4 12-12 12z"></path>
</symbol>
<symbol id="circle-down-12" viewBox="0 0 32 32">
<title>circle-down-12</title>
<path d="M16 0c-8.8 0-16 7.2-16 16s7.2 16 16 16 16-7.2 16-16-7.2-16-16-16zM16 20l-6-8h12l-6 8z"></path>
</symbol>
<symbol id="circle-down-40" viewBox="0 0 32 32">
<title>circle-down-40</title>
<path d="M16 0c-8.8 0-16 7.2-16 16s7.2 16 16 16 16-7.2 16-16-7.2-16-16-16zM16 20.8l-6.8-6.8 2.8-2.8 4 4 4-4 2.8 2.8-6.8 6.8z"></path>
</symbol>
<symbol id="circle-left-10" viewBox="0 0 32 32">
<title>circle-left-10</title>
<path d="M16 0c-8.8 0-16 7.2-16 16s7.2 16 16 16 16-7.2 16-16-7.2-16-16-16zM20 22l-8-6 8-6v12z"></path>
</symbol>
<symbol id="circle-left-38" viewBox="0 0 32 32">
<title>circle-left-38</title>
<path d="M16 0c-8.8 0-16 7.2-16 16s7.2 16 16 16 16-7.2 16-16-7.2-16-16-16zM20.8 20l-2.8 2.8-6.8-6.8 6.8-6.8 2.8 2.8-4 4 4 4z"></path>
</symbol>
<symbol id="circle-right-09" viewBox="0 0 32 32">
<title>circle-right-09</title>
<path d="M16 0c-8.8 0-16 7.2-16 16s7.2 16 16 16 16-7.2 16-16-7.2-16-16-16zM12 22v-12l8 6-8 6z"></path>
</symbol>
<symbol id="circle-right-37" viewBox="0 0 32 32">
<title>circle-right-37</title>
<path d="M16 0c-8.8 0-16 7.2-16 16s7.2 16 16 16 16-7.2 16-16-7.2-16-16-16zM14 22.8l-2.8-2.8 4-4-4-4 2.8-2.8 6.8 6.8-6.8 6.8z"></path>
</symbol>
<symbol id="circle-up-11" viewBox="0 0 32 32">
<title>circle-up-11</title>
<path d="M16 0c-8.8 0-16 7.2-16 16s7.2 16 16 16 16-7.2 16-16-7.2-16-16-16zM10 20l6-8 6 8h-12z"></path>
</symbol>
<symbol id="circle-up-39" viewBox="0 0 32 32">
<title>circle-up-39</title>
<path d="M16 0c-8.8 0-16 7.2-16 16s7.2 16 16 16 16-7.2 16-16-7.2-16-16-16zM20 20.8l-4-4-4 4-2.8-2.8 6.8-6.8 6.8 6.8-2.8 2.8z"></path>
</symbol>
<symbol id="cursor-48" viewBox="0 0 32 32">
<title>cursor-48</title>
<path d="M32 9.958c-0.020-0.876-0.608-1.64-1.452-1.88l-28-8c-0.69-0.2-1.448-0.006-1.962 0.508s-0.71 1.264-0.51 1.964l8 28c0.242 0.842 1.004 1.43 1.882 1.45 0.912 0.046 1.664-0.536 1.94-1.368l2.978-8.93 9.71 9.712c0.39 0.39 0.902 0.586 1.414 0.586s1.024-0.196 1.414-0.586l4-4c0.782-0.782 0.782-2.046 0-2.828l-9.71-9.712 8.93-2.976c0.83-0.278 1.386-1.064 1.366-1.94z"></path>
</symbol>
<symbol id="curved-next" viewBox="0 0 32 32">
<title>curved-next</title>
<path d="M16 10c-10.4 0-16 7.6-16 20 3-4.8 5.4-8 16-8v8l16-14-16-14v8z"></path>
</symbol>
<symbol id="curved-previous" viewBox="0 0 32 32">
<title>curved-previous</title>
<path d="M16 10c10.4 0 16 7.6 16 20-3-4.8-5.4-8-16-8v8l-16-14 16-14v8z"></path>
</symbol>
<symbol id="disk-2" viewBox="0 0 32 32">
<title>disk-2</title>
<path d="M23.4 0.6c-0.4-0.4-0.8-0.6-1.4-0.6h-2v6c0 1.2-0.8 2-2 2h-10c-1.2 0-2-0.8-2-2v-6h-4c-1.2 0-2 0.8-2 2v28c0 1.2 0.8 2 2 2h28c1.2 0 2-0.8 2-2v-20c0-0.6-0.2-1-0.6-1.4l-8-8zM26 28h-20v-6c0-1.2 0.8-2 2-2h16c1.2 0 2 0.8 2 2v6z"></path>
<path d="M14 0h4v6h-4v-6z"></path>
</symbol>
<symbol id="double-left" viewBox="0 0 32 32">
<title>double-left</title>
<path d="M28 32c-0.564 0-1.124-0.236-1.52-0.7l-12-14c-0.642-0.748-0.642-1.854 0-2.602l12-14c0.72-0.84 1.984-0.936 2.82-0.216 0.838 0.718 0.936 1.98 0.216 2.818l-10.882 12.7 10.884 12.7c0.718 0.838 0.622 2.1-0.216 2.818-0.378 0.324-0.84 0.482-1.302 0.482z"></path>
<path d="M16 32c-0.564 0-1.124-0.236-1.52-0.7l-12-14c-0.642-0.748-0.642-1.854 0-2.602l12-14c0.72-0.838 1.984-0.934 2.822-0.216 0.838 0.72 0.936 1.98 0.216 2.818l-10.884 12.7 10.884 12.7c0.718 0.838 0.622 2.1-0.216 2.818-0.378 0.324-0.84 0.482-1.302 0.482z"></path>
</symbol>
<symbol id="double-right" viewBox="0 0 32 32">
<title>double-right</title>
<path d="M4 32c-0.46 0-0.924-0.158-1.3-0.482-0.838-0.718-0.936-1.98-0.216-2.818l10.882-12.7-10.884-12.7c-0.72-0.838-0.622-2.098 0.216-2.818s2.1-0.624 2.82 0.216l12 14c0.642 0.748 0.642 1.854 0 2.602l-12 14c-0.394 0.464-0.956 0.7-1.518 0.7z"></path>
<path d="M16 32c-0.46 0-0.924-0.158-1.3-0.482-0.838-0.718-0.936-1.98-0.216-2.818l10.882-12.7-10.884-12.7c-0.72-0.838-0.622-2.098 0.216-2.818s2.102-0.624 2.82 0.218l12 14c0.642 0.748 0.642 1.854 0 2.602l-12 14c-0.394 0.462-0.956 0.698-1.518 0.698z"></path>
</symbol>
<symbol id="edit-73" viewBox="0 0 32 32">
<title>edit-73</title>
<path d="M0 28h32v4h-32v-4z"></path>
<path d="M23.4 6.6c0.8-0.8 0.8-2 0-2.8l-3.2-3.2c-0.8-0.8-2-0.8-2.8 0l-17.4 17.4v6h6l17.4-17.4z"></path>
</symbol>
<symbol id="edit-75" viewBox="0 0 32 32">
<title>edit-75</title>
<path d="M28.2 0.6c-0.8-0.8-2-0.8-2.8 0l-13.4 13.4v6h6l13.4-13.4c0.8-0.8 0.8-2 0-2.8l-3.2-3.2z"></path>
<path d="M30 18c-1.2 0-2 0.8-2 2v8h-24v-24h8c1.2 0 2-0.8 2-2s-0.8-2-2-2h-10c-1.2 0-2 0.8-2 2v28c0 1.2 0.8 2 2 2h28c1.2 0 2-0.8 2-2v-10c0-1.2-0.8-2-2-2z"></path>
</symbol>
<symbol id="edit-76" viewBox="0 0 32 32">
<title>edit-76</title>
<path d="M25.333 30.667h-22.667c-0.736 0-1.333-0.597-1.333-1.333v0-22.667c0-0.736 0.597-1.333 1.333-1.333v0h10.667v2.667h-9.333v20h20v-9.333h2.667v10.667c0 0.736-0.597 1.333-1.333 1.333v0z"></path>
<path d="M22.666 4.78l4-4 4.552 4.552-4 4-4.552-4.552z"></path>
<path d="M20.781 6.667l-9.947 9.947-2.276 6.828 6.828-2.276 9.947-9.947-4.552-4.552z"></path>
</symbol>
<symbol id="email-83" viewBox="0 0 32 32">
<title>email-83</title>
<path d="M30 2h-28c-1.2 0-2 0.8-2 2v2.8l16 9 16-8.8v-3c0-1.2-0.8-2-2-2z"></path>
<path d="M15 19.8l-15-8.4v16.6c0 1.2 0.8 2 2 2h28c1.2 0 2-0.8 2-2v-16.6l-15 8.4c-0.56 0.28-1.44 0.28-2 0z"></path>
</symbol>
<symbol id="enlarge-45" viewBox="0 0 32 32">
<title>enlarge-45</title>
<path d="M0 16l12-10v20z"></path>
<path d="M32 16l-12-10v20z"></path>
</symbol>
<symbol id="enlarge-46" viewBox="0 0 32 32">
<title>enlarge-46</title>
<path d="M9.688 28.81l-9.25-11.56c-0.584-0.73-0.584-1.77 0-2.5l9.25-11.56 3.124 2.498-8.252 10.312 8.25 10.312-3.122 2.498z"></path>
<path d="M22.312 28.81l-3.124-2.498 8.252-10.312-8.25-10.312 3.124-2.498 9.25 11.56c0.584 0.73 0.584 1.77 0 2.5l-9.252 11.56z"></path>
</symbol>
<symbol id="eraser-33" viewBox="0 0 32 32">
<title>eraser-33</title>
<path d="M0 28h32v4h-32v-4z"></path>
<path d="M9.2 24h9.6l10.6-10.6c0.8-0.8 0.8-2 0-2.8l-10-10c-0.8-0.8-2-0.8-2.8 0l-14 14c-0.8 0.8-0.8 2 0 2.8l6.6 6.6z"></path>
</symbol>
<symbol id="flag" viewBox="0 0 32 32">
<title>flag</title>
<path d="M28 1.48c-7.040-5.080-14 4.8-21.1 1.36v-0.72c0-0.906-0.734-1.64-1.64-1.64s-1.64 0.734-1.64 1.64v0 28.24c0 0.906 0.734 1.64 1.64 1.64s1.64-0.734 1.64-1.64v0-12c6.68 3.26 13.38-5.48 20-2 0.134 0.071 0.292 0.112 0.46 0.112 0.549 0 0.995-0.443 1-0.992v-13.2c0-0.009 0-0.020 0-0.031 0-0.308-0.14-0.584-0.359-0.768l-0.002-0.001z"></path>
</symbol>
<symbol id="fullscreen-double-74" viewBox="0 0 32 32">
<title>fullscreen-double-74</title>
<path d="M18 4h7.2l-8 8 2.8 2.8 8-8v7.2h4v-14h-14z"></path>
<path d="M12 17.2l-8 8v-7.2h-4v14h14v-4h-7.2l8-8z"></path>
</symbol>
<symbol id="funnel-40" viewBox="0 0 32 32">
<title>funnel-40</title>
<path d="M31.79 1.106c-0.34-0.678-1.032-1.106-1.79-1.106h-28c-0.758 0-1.45 0.428-1.79 1.106-0.336 0.678-0.264 1.488 0.19 2.094l11.6 15.466v11.334c0 1.106 0.894 2 2 2h4c1.106 0 2-0.894 2-2v-11.334l11.6-15.466c0.454-0.606 0.526-1.416 0.19-2.094z"></path>
</symbol>
<symbol id="gift" viewBox="0 0 32 32">
<title>gift</title>
<path d="M26 18h-20c-1.2 0-2 0.8-2 2v10c0 1.2 0.8 2 2 2h20c1.2 0 2-0.8 2-2v-10c0-1.2-0.8-2-2-2z"></path>
<path d="M27.6 8c0.2-0.6 0.4-1.2 0.4-2 0-3.4-2.6-6-6-6-2.8 0-4.8 1.6-6 3.4-1.2-1.8-3.2-3.4-6-3.4-3.4 0-6 2.6-6 6 0 0.8 0.2 1.4 0.4 2h-4.4v8h32v-8h-4.4zM22 4c1.2 0 2 0.8 2 2s-0.8 2-2 2h-3.6c0.4-1.8 1.4-4 3.6-4zM8 6c0-1.2 0.8-2 2-2 2.2 0 3.2 2.2 3.6 4h-3.6c-1.2 0-2-0.8-2-2z"></path>
</symbol>
<symbol id="grid-45" viewBox="0 0 32 32">
<title>grid-45</title>
<path d="M12 0h-10c-1.2 0-2 0.8-2 2v10c0 1.2 0.8 2 2 2h10c1.2 0 2-0.8 2-2v-10c0-1.2-0.8-2-2-2z"></path>
<path d="M30 0h-10c-1.2 0-2 0.8-2 2v10c0 1.2 0.8 2 2 2h10c1.2 0 2-0.8 2-2v-10c0-1.2-0.8-2-2-2z"></path>
<path d="M12 18h-10c-1.2 0-2 0.8-2 2v10c0 1.2 0.8 2 2 2h10c1.2 0 2-0.8 2-2v-10c0-1.2-0.8-2-2-2z"></path>
<path d="M30 18h-10c-1.2 0-2 0.8-2 2v10c0 1.2 0.8 2 2 2h10c1.2 0 2-0.8 2-2v-10c0-1.2-0.8-2-2-2z"></path>
</symbol>
<symbol id="grid-48" viewBox="0 0 32 32">
<title>grid-48</title>
<path d="M0 0h8v8h-8v-8z"></path>
<path d="M12 0h8v8h-8v-8z"></path>
<path d="M24 0h8v8h-8v-8z"></path>
<path d="M0 12h8v8h-8v-8z"></path>
<path d="M12 12h8v8h-8v-8z"></path>
<path d="M24 12h8v8h-8v-8z"></path>
<path d="M0 24h8v8h-8v-8z"></path>
<path d="M12 24h8v8h-8v-8z"></path>
<path d="M24 24h8v8h-8v-8z"></path>
</symbol>
<symbol id="guitar" viewBox="0 0 32 32">
<title>guitar</title>
<path d="M31.609 4.391l-4-4c-0.521-0.521-1.364-0.521-1.885 0l-4 4c-0.521 0.521-0.521 1.364 0 1.885l1.057 1.057-2.208 2.208c-1.604-1.204-3.541-1.865-5.584-1.865-2.492 0-4.836 0.971-6.599 2.733l-1.885 1.887 0.943 0.943c0.523 0.524 0.521 1.365 0 1.885-0.503 0.505-1.383 0.504-1.885 0l-0.943-0.944-1.885 1.887c-1.763 1.764-2.735 4.107-2.735 6.6s0.972 4.836 2.735 6.6 4.105 2.733 6.599 2.733 4.836-0.971 6.599-2.733l1.888-1.885-0.944-0.944c-0.52-0.52-0.52-1.365 0-1.887h0.001c0.517-0.52 1.364-0.52 1.884 0.001l0.943 0.943 1.885-1.885c3.317-3.319 3.6-8.528 0.868-12.181l2.209-2.209 1.057 1.057c0.521 0.521 1.364 0.521 1.885 0l4-4c0.521-0.521 0.521-1.364 0-1.885zM9.333 26.437l-3.771-3.771 1.885-1.885 3.771 3.771-1.885 1.885zM16 18.667c-1.473 0-2.667-1.193-2.667-2.667s1.193-2.667 2.667-2.667 2.667 1.193 2.667 2.667-1.193 2.667-2.667 2.667z"></path>
</symbol>
<symbol id="home-1-2" viewBox="0 0 32 32">
<title>home-1-2</title>
<path d="M21.896 32h3.998c1.2 0 1.998-0.8 1.998-1.998v-14.162h1.998c0.6 0 1.2-0.2 1.6-0.6 0.8-0.8 0.6-1.998-0.2-2.798l-13.99-11.992c-0.8-0.6-1.8-0.6-2.598 0l-13.994 11.992c-0.8 0.8-1 1.998-0.2 2.798 0.2 0.4 0.8 0.6 1.4 0.6h1.998v14.16c0 1.2 0.8 1.998 1.998 1.998h3.998c1.2 0 1.998-0.8 1.998-1.998v-6.164h7.996v6.164c0.002 1.2 0.802 2 2 2z"></path>
</symbol>
<symbol id="ic_closed_caption_24px" viewBox="0 0 32 32">
<title>ic_closed_caption_24px</title>
<path d="M25.333 5.333h-18.667c-1.48 0-2.667 1.2-2.667 2.667v16c0 1.467 1.187 2.667 2.667 2.667h18.667c1.467 0 2.667-1.2 2.667-2.667v-16c0-1.467-1.2-2.667-2.667-2.667zM14.667 14.667h-2v-0.667h-2.667v4h2.667v-0.667h2v1.333c0 0.733-0.6 1.333-1.333 1.333h-4c-0.733 0-1.333-0.6-1.333-1.333v-5.333c0-0.733 0.6-1.333 1.333-1.333h4c0.733 0 1.333 0.6 1.333 1.333v1.333zM24 14.667h-2v-0.667h-2.667v4h2.667v-0.667h2v1.333c0 0.733-0.6 1.333-1.333 1.333h-4c-0.733 0-1.333-0.6-1.333-1.333v-5.333c0-0.733 0.6-1.333 1.333-1.333h4c0.733 0 1.333 0.6 1.333 1.333v1.333z"></path>
</symbol>
<symbol id="image-01" viewBox="0 0 32 32">
<title>image-01</title>
<path d="M30 0h-28c-1.2 0-2 0.8-2 2v28c0 1.2 0.8 2 2 2h28c1.2 0 2-0.8 2-2v-28c0-1.2-0.8-2-2-2zM12 8c1.2 0 2 0.8 2 2s-0.8 2-2 2c-1.2 0-2-0.8-2-2s0.8-2 2-2zM6 24l4-8 4 4 6-8 6 12h-20z"></path>
</symbol>
<symbol id="italic" viewBox="0 0 32 32">
<title>italic</title>
<path d="M24 4v-4h-12v4h2.541c0.609 0 1.076 0.539 0.99 1.141l-3.020 21.141c-0.141 0.985-0.985 1.717-1.98 1.717h-2.531v4h12v-4h-2.541c-0.609 0-1.076-0.539-0.99-1.141l3.020-21.141c0.141-0.985 0.985-1.717 1.98-1.717h2.531z"></path>
</symbol>
<symbol id="like-2" viewBox="0 0 32 32">
<title>like-2</title>
<path d="M26.6 12h-8.6v-8c0-3-1.6-4-4-4-0.6 0-1.2 0.4-1.2 1 0 0-4.6 15-4.8 15v16h17.2c2.6 0 4.8-2 5.2-4.6l1.6-9.2c0.2-1.6-0.2-3.2-1.2-4.2-1-1.4-2.6-2-4.2-2z"></path>
<path d="M0 16h4v16h-4v-16z"></path>
</symbol>
<symbol id="link-72" viewBox="0 0 32 32">
<title>link-72</title>
<path d="M9 32c-2.4 0-4.6-1-6.4-2.6-3.6-3.6-3.6-9.2 0-12.8l1.4-1.4 2.8 2.8-1.4 1.4c-2 2-2 5.2 0 7.2s5.2 2 7.2 0l6-6c2-2 2-5.2 0-7.2l-1.4-1.4 2.8-2.8 1.4 1.4c3.6 3.6 3.6 9.2 0 12.8l-6 6c-1.6 1.6-4 2.6-6.4 2.6z"></path>
<path d="M12 22.8l-1.4-1.4c-3.6-3.6-3.6-9.2 0-12.8l6-6c1.8-1.8 4-2.6 6.4-2.6s4.6 1 6.4 2.6c3.6 3.6 3.6 9.2 0 12.8l-1.4 1.4-2.8-2.8 1.4-1.4c2-2 2-5.2 0-7.2s-5.2-2-7.2 0l-6 6c-2 2-2 5.2 0 7.2l1.4 1.4-2.8 2.8z"></path>
</symbol>
<symbol id="log-in" viewBox="0 0 32 32">
<title>log-in</title>
<path d="M16 24l8-8-8-8v6h-16v4h16z"></path>
<path d="M30 32h-18c-1.2 0-2-0.8-2-2v-6h4v4h14v-24h-14v4h-4v-6c0-1.2 0.8-2 2-2h18c1.2 0 2 0.8 2 2v28c0 1.2-0.8 2-2 2z"></path>
</symbol>
<symbol id="log-out" viewBox="0 0 32 32">
<title>log-out</title>
<path d="M8 8l-8 8 8 8v-6h12v-4h-12z"></path>
<path d="M30 32h-18c-1.2 0-2-0.8-2-2v-6h4v4h14v-24h-14v4h-4v-6c0-1.2 0.8-2 2-2h18c1.2 0 2 0.8 2 2v28c0 1.2-0.8 2-2 2z"></path>
</symbol>
<symbol id="logo-fb-simple" viewBox="0 0 32 32">
<title>logo-fb-simple</title>
<path d="M12.046 32l-0.046-14h-6v-6h6v-4c0-5.398 3.343-8 8.159-8 2.307 0 4.289 0.172 4.867 0.248v5.642l-3.34 0.002c-2.619 0-3.126 1.245-3.126 3.071v3.038h7.44l-2 6h-5.44v14h-6.514z"></path>
</symbol>
<symbol id="logo-google-plus" viewBox="0 0 32 32">
<title>logo-google-plus</title>
<path d="M16 14v4.8h8.2c-0.4 2-2.4 6-8 6-4.8 0-8.6-4-8.6-8.8s4-8.8 8.6-8.8c2.8 0 4.6 1.2 5.6 2.2l3.8-3.6c-2.4-2.4-5.6-3.8-9.4-3.8-7.8 0-14 6.2-14 14s6.2 14 14 14c8 0 13.4-5.6 13.4-13.6 0-1 0-1.6-0.2-2.4h-13.4z"></path>
</symbol>
<symbol id="logo-twitter" viewBox="0 0 32 32">
<title>logo-twitter</title>
<path d="M32 6c-1.2 0.6-2.4 0.8-3.8 1 1.4-0.8 2.4-2 2.8-3.6-1.2 0.8-2.6 1.2-4.2 1.6-1.2-1.2-3-2-4.8-2-3.4 0-6.4 3-6.4 6.6 0 0.6 0 1 0.2 1.4-5.4-0.2-10.4-2.8-13.6-6.8-0.6 1-0.8 2-0.8 3.4 0 2.2 1.2 4.2 3 5.4-1 0-2-0.4-3-0.8 0 0 0 0 0 0 0 3.2 2.2 5.8 5.2 6.4-0.6 0.2-1.2 0.2-1.8 0.2-0.4 0-0.8 0-1.2-0.2 0.8 2.6 3.2 4.6 6.2 4.6-2.2 1.8-5 2.8-8.2 2.8-0.6 0-1 0-1.6 0 3 1.8 6.4 3 10 3 12 0 18.6-10 18.6-18.6 0-0.2 0-0.6 0-0.8 1.4-1 2.6-2.2 3.4-3.6z"></path>
</symbol>
<symbol id="logo-youtube-2" viewBox="0 0 32 32">
<title>logo-youtube-2</title>
<path d="M31.733 9.6c0 0-0.267-2.267-1.333-3.2-1.2-1.333-2.533-1.333-3.2-1.333-4.533-0.267-11.2-0.267-11.2-0.267v0c0 0-6.667 0-11.2 0.267-0.667 0.133-2 0.133-3.2 1.333-0.933 0.933-1.333 3.2-1.333 3.2s-0.267 2.533-0.267 5.2v2.4c0 2.533 0.267 5.2 0.267 5.2s0.267 2.267 1.333 3.2c1.2 1.333 2.8 1.2 3.467 1.333 2.533 0.267 10.933 0.267 10.933 0.267s6.667 0 11.2-0.4c0.667-0.133 2-0.133 3.2-1.333 0.933-0.933 1.333-3.2 1.333-3.2s0.267-2.533 0.267-5.2v-2.4c0-2.533-0.267-5.067-0.267-5.067zM12.667 20.133v-8.933l8.667 4.533-8.667 4.4z"></path>
</symbol>
<symbol id="media-1" viewBox="0 0 32 32">
<title>media-1</title>
<path d="M19.186 30.39c0.222 0.172 0.505 0.276 0.812 0.276 0.737 0 1.334-0.597 1.334-1.334v-5.906l8.49 6.938c0.228 0.189 0.524 0.303 0.846 0.303 0.736 0 1.332-0.596 1.332-1.332 0-0 0-0.001 0-0.001v0-26.668c0-0.001 0-0.002 0-0.003 0-0.736-0.596-1.332-1.332-1.332-0.322 0-0.618 0.114-0.848 0.305l0.002-0.002-8.49 6.938v-5.906c0-0.001 0-0.002 0-0.004 0-0.736-0.596-1.332-1.332-1.332-0.308 0-0.591 0.104-0.817 0.28l0.003-0.002-17.332 13.334c-0.318 0.246-0.521 0.628-0.521 1.058s0.203 0.812 0.518 1.056l0.003 0.002 17.332 13.332z"></path>
</symbol>
<symbol id="media-2" viewBox="0 0 32 32">
<title>media-2</title>
<path d="M12.814 1.61c-0.002-0.734-0.597-1.329-1.332-1.329-0.736 0-1.332 0.596-1.332 1.332 0 0.427 0.201 0.807 0.513 1.051l0.003 0.002v5.906l-8.488-6.938c-0.228-0.189-0.524-0.303-0.846-0.303-0.736 0-1.332 0.596-1.332 1.332 0 0.001 0 0.002 0 0.003v-0 26.666c0 0.001 0 0.002 0 0.003 0 0.736 0.596 1.332 1.332 1.332 0.322 0 0.618-0.114 0.848-0.305l-0.002 0.002 8.49-6.938v5.906c0 0.001 0 0.002 0 0.004 0 0.736 0.596 1.332 1.332 1.332 0.308 0 0.591-0.104 0.817-0.28l-0.003 0.002 17.334-13.334c0.319-0.246 0.523-0.628 0.523-1.058s-0.204-0.812-0.52-1.056l-0.003-0.002-17.334-13.33z"></path>
</symbol>
<symbol id="media-3" viewBox="0 0 32 32">
<title>media-3</title>
<path d="M19.262 1.474c-0.174-0.088-0.378-0.139-0.595-0.139-0.302 0-0.58 0.1-0.804 0.268l0.003-0.002-10.31 7.734h-6.222c-0.001 0-0.001 0-0.002 0-0.736 0-1.332 0.596-1.332 1.332 0 0 0 0 0 0v0 10.666c0 0.738 0.596 1.334 1.334 1.334h6.222l10.31 7.734c0.219 0.168 0.497 0.269 0.799 0.269 0.218 0 0.424-0.053 0.605-0.146l-0.007 0.003c0.441-0.224 0.737-0.673 0.738-1.192v-26.668c-0.001-0.519-0.297-0.968-0.73-1.188l-0.008-0.004z"></path>
<path d="M24.324 10.344l-0.942-0.942-1.886 1.886 0.942 0.942c0.964 0.966 1.56 2.299 1.56 3.771s-0.596 2.805-1.56 3.771l-0.942 0.942 1.886 1.886 0.942-0.942c1.445-1.449 2.338-3.449 2.338-5.657s-0.893-4.208-2.339-5.657l0 0z"></path>
<path d="M27.152 5.63l-1.886 1.886 0.942 0.942c1.927 1.932 3.119 4.598 3.119 7.543s-1.192 5.611-3.119 7.543l-0.942 0.942 1.886 1.886 0.942-0.942c2.409-2.415 3.898-5.748 3.898-9.429s-1.49-7.014-3.899-9.429l-0.942-0.942z"></path>
</symbol>
<symbol id="media-4" viewBox="0 0 32 32">
<title>media-4</title>
<path d="M21.932 1.474c-0.174-0.088-0.378-0.139-0.595-0.139-0.302 0-0.58 0.1-0.804 0.268l0.003-0.002-10.312 7.734h-6.222c-0.001 0-0.001 0-0.002 0-0.736 0-1.332 0.596-1.332 1.332 0 0.001 0 0.001 0 0.002v-0 10.666c0 0.738 0.596 1.334 1.334 1.334h6.222l10.31 7.734c0.219 0.168 0.497 0.269 0.799 0.269 0.218 0 0.424-0.053 0.605-0.146l-0.007 0.003c0.441-0.224 0.738-0.674 0.738-1.193 0-0 0-0 0-0.001v0-26.668c0-0 0-0.001 0-0.001 0-0.518-0.296-0.968-0.728-1.188l-0.008-0.004z"></path>
<path d="M26.992 10.344l-0.942-0.942-1.886 1.886 0.942 0.942c0.964 0.966 1.56 2.299 1.56 3.771s-0.596 2.805-1.56 3.771l-0.942 0.942 1.886 1.886 0.942-0.942c1.446-1.449 2.34-3.448 2.34-5.657s-0.894-4.208-2.34-5.657l0 0z"></path>
</symbol>
<symbol id="media-5" viewBox="0 0 32 32">
<title>media-5</title>
<path d="M25.262 1.474c-0.174-0.088-0.378-0.139-0.595-0.139-0.302 0-0.58 0.099-0.805 0.267l0.003-0.002-10.31 7.734h-6.222c-0.001 0-0.001 0-0.002 0-0.736 0-1.332 0.596-1.332 1.332 0 0 0 0 0 0v0 10.666c0 0.738 0.596 1.334 1.334 1.334h6.222l10.31 7.734c0.219 0.168 0.497 0.269 0.799 0.269 0.218 0 0.424-0.053 0.605-0.146l-0.007 0.003c0.441-0.224 0.737-0.673 0.738-1.192v-26.668c-0.001-0.519-0.297-0.968-0.73-1.188l-0.008-0.004z"></path>
</symbol>
<symbol id="media-6" viewBox="0 0 32 32">
<title>media-6</title>
<path d="M14.090 23.566l9.11 6.834c0.219 0.168 0.497 0.269 0.799 0.269 0.218 0 0.424-0.053 0.605-0.146l-0.007 0.003c0.441-0.224 0.738-0.674 0.738-1.193 0-0 0-0 0-0.001v0-17.010l-11.244 11.244z"></path>
<path d="M2.666 22.666h6.666l16-16v-4c-0.001-0.519-0.297-0.969-0.73-1.19l-0.008-0.004c-0.173-0.087-0.377-0.138-0.593-0.138-0.302 0-0.581 0.1-0.805 0.269l0.003-0.002-10.31 7.734h-10.224c-0.001 0-0.001 0-0.002 0-0.736 0-1.332 0.596-1.332 1.332 0 0.001 0 0.001 0 0.002v-0 10.666c0.001 0.736 0.598 1.332 1.334 1.332 0 0 0 0 0 0v0z"></path>
<path d="M1.334 32c-0.001 0-0.001 0-0.002 0-0.736 0-1.332-0.596-1.332-1.332 0-0.369 0.15-0.703 0.392-0.944l29.332-29.334c0.241-0.241 0.575-0.391 0.943-0.391 0.737 0 1.334 0.597 1.334 1.334 0 0.368-0.149 0.702-0.391 0.943v0l-29.334 29.334c-0.241 0.241-0.573 0.39-0.941 0.39-0 0-0.001 0-0.001 0h0z"></path>
</symbol>
<symbol id="media-7" viewBox="0 0 32 32">
<title>media-7</title>
<path d="M8 0h4v10c0 1.2-0.8 2-2 2h-10v-4h8v-8z"></path>
<path d="M20 0h4v8h8v4h-10c-1.2 0-2-0.8-2-2v-10z"></path>
<path d="M22 20h10v4h-8v8h-4v-10c0-1.2 0.8-2 2-2z"></path>
<path d="M0 20h10c1.2 0 2 0.8 2 2v10h-4v-8h-8v-4z"></path>
</symbol>
<symbol id="menu-34" viewBox="0 0 32 32">
<title>menu-34</title>
<path d="M30 14h-28c-1.2 0-2 0.8-2 2s0.8 2 2 2h28c1.2 0 2-0.8 2-2s-0.8-2-2-2z"></path>
<path d="M30 2h-28c-1.2 0-2 0.8-2 2s0.8 2 2 2h28c1.2 0 2-0.8 2-2s-0.8-2-2-2z"></path>
<path d="M30 26h-28c-1.2 0-2 0.8-2 2s0.8 2 2 2h28c1.2 0 2-0.8 2-2s-0.8-2-2-2z"></path>
</symbol>
<symbol id="menu-bold" viewBox="0 0 32 32">
<title>menu-bold</title>
<path d="M0 0h32v6h-32v-6z"></path>
<path d="M0 12h32v6h-32v-6z"></path>
<path d="M0 24h32v6h-32v-6z"></path>
</symbol>
<symbol id="menu-dots" viewBox="0 0 32 32">
<title>menu-dots</title>
<path d="M20 16c0 2.209-1.791 4-4 4s-4-1.791-4-4c0-2.209 1.791-4 4-4s4 1.791 4 4z"></path>
<path d="M8 16c0 2.209-1.791 4-4 4s-4-1.791-4-4c0-2.209 1.791-4 4-4s4 1.791 4 4z"></path>
<path d="M32 16c0 2.209-1.791 4-4 4s-4-1.791-4-4c0-2.209 1.791-4 4-4s4 1.791 4 4z"></path>
</symbol>
<symbol id="minimal-down" viewBox="0 0 32 32">
<title>minimal-down</title>
<path d="M16 25.2l-15.4-15.4 2.8-3 12.6 12.6 12.6-12.6 2.8 3z"></path>
</symbol>
<symbol id="minimal-left" viewBox="0 0 32 32">
<title>minimal-left</title>
<path d="M22.2 31.4l-15.4-15.4 15.4-15.4 3 2.8-12.6 12.6 12.6 12.6z"></path>
</symbol>
<symbol id="minimal-right" viewBox="0 0 32 32">
<title>minimal-right</title>
<path d="M9.8 31.4l-3-2.8 12.6-12.6-12.6-12.6 3-2.8 15.4 15.4z"></path>
</symbol>
<symbol id="minimal-up" viewBox="0 0 32 32">
<title>minimal-up</title>
<path d="M28.6 25.2l-12.6-12.6-12.6 12.6-2.8-3 15.4-15.4 15.4 15.4z"></path>
</symbol>
<symbol id="mobile-button-2" viewBox="0 0 32 32">
<title>mobile-button-2</title>
<path d="M24 0h-16c-2.206 0-4 1.794-4 4v24c0 2.206 1.794 4 4 4h16c2.206 0 4-1.794 4-4v-24c0-2.206-1.794-4-4-4zM16 28c-1.104 0-2-0.896-2-2s0.896-2 2-2 2 0.896 2 2-0.896 2-2 2zM24 20h-16v-16h16v16z"></path>
</symbol>
<symbol id="multiple-11" viewBox="0 0 32 32">
<title>multiple-11</title>
<path d="M16 8v0c-2.209 0-4-1.791-4-4v0c0-2.209 1.791-4 4-4v0c2.209 0 4 1.791 4 4v0c0 2.209-1.791 4-4 4z"></path>
<path d="M5.333 25.333v-10.667c0-1.507 0.521-2.883 1.368-4h-4.035c-1.473 0-2.667 1.193-2.667 2.667v8h2.667v6.667c0 0.736 0.597 1.333 1.333 1.333h2.667c0.736 0 1.333-0.597 1.333-1.333v-2.667h-2.667z"></path>
<path d="M18.667 32h-5.333c-0.736 0-1.333-0.597-1.333-1.333v-8h-4v-8c0-2.209 1.791-4 4-4h8c2.209 0 4 1.791 4 4v8h-4v8c0 0.736-0.597 1.333-1.333 1.333z"></path>
<path d="M5.333 9.333v0c-1.473 0-2.667-1.193-2.667-2.667v0c0-1.473 1.193-2.667 2.667-2.667v0c1.473 0 2.667 1.193 2.667 2.667v0c0 1.473-1.193 2.667-2.667 2.667z"></path>
<path d="M26.667 25.333v-10.667c0-1.507-0.521-2.883-1.368-4h4.035c1.473 0 2.667 1.193 2.667 2.667v8h-2.667v6.667c0 0.736-0.597 1.333-1.333 1.333h-2.667c-0.736 0-1.333-0.597-1.333-1.333v-2.667h2.667z"></path>
<path d="M26.667 9.333v0c1.473 0 2.667-1.193 2.667-2.667v0c0-1.473-1.193-2.667-2.667-2.667v0c-1.473 0-2.667 1.193-2.667 2.667v0c0 1.473 1.193 2.667 2.667 2.667z"></path>
</symbol>
<symbol id="pencil" viewBox="0 0 32 32">
<title>pencil</title>
<path d="M23.4 0.6c-0.8-0.8-2-0.8-2.8 0l-20 20c-0.4 0.4-0.6 0.8-0.6 1.4v8c0 1.2 0.8 2 2 2h8c0.6 0 1-0.2 1.4-0.6l20-20c0.8-0.8 0.8-2 0-2.8l-8-8zM9.2 28h-5.2v-5.2l12-12 5.2 5.2-12 12zM24 13.2l-5.2-5.2 3.2-3.2 5.2 5.2-3.2 3.2z"></path>
</symbol>
<symbol id="phone-2" viewBox="0 0 32 32">
<title>phone-2</title>
<path d="M30.57 24.61l-5.156-5.188c-0.78-0.786-2.050-0.786-2.832-0.004l-4.582 4.582-10-10 4.588-4.588c0.78-0.78 0.782-2.046 0.002-2.828l-5.16-5.168c-0.782-0.782-2.048-0.782-2.83 0l-4.592 4.59-0.008-0.006c0 14.36 11.64 26 26 26l4.566-4.566c0.78-0.78 0.782-2.042 0.004-2.824z"></path>
</symbol>
<symbol id="phone-call" viewBox="0 0 32 32">
<title>phone-call</title>
<path d="M30.57 24.61l-5.156-5.188c-0.78-0.786-2.050-0.786-2.832-0.004l-4.582 4.582-10-10 4.588-4.588c0.78-0.78 0.782-2.046 0.002-2.828l-5.16-5.168c-0.782-0.782-2.048-0.782-2.83 0l-4.592 4.59-0.008-0.006c0 14.36 11.64 26 26 26l4.566-4.566c0.78-0.78 0.782-2.042 0.004-2.824z"></path>
<path d="M32 16h-4c0-6.618-5.382-12-12-12v-4c8.822 0 16 7.178 16 16z"></path>
<path d="M24 16h-4c0-2.206-1.794-4-4-4v-4c4.412 0 8 3.588 8 8z"></path>
</symbol>
<symbol id="pin-3" viewBox="0 0 32 32">
<title>pin-3</title>
<path d="M16 0c-5.867 0-12 4.533-12 12 0 7.067 10.667 17.867 11.067 18.267 0.267 0.267 0.533 0.4 0.933 0.4s0.667-0.133 0.933-0.4c0.4-0.4 11.067-11.2 11.067-18.267 0-7.467-6.133-12-12-12zM16 16c-2.267 0-4-1.733-4-4s1.733-4 4-4 4 1.733 4 4-1.733 4-4 4z"></path>
</symbol>
<symbol id="play-68" viewBox="0 0 32 32">
<title>play-68</title>
<path d="M30 0h-28c-1.2 0-2 0.8-2 2v28c0 1.2 0.8 2 2 2h28c1.2 0 2-0.8 2-2v-28c0-1.2-0.8-2-2-2zM21.2 17.6l-8 6c-1.2 1-3.2 0-3.2-1.6v-12c0-1.6 1.8-2.6 3.2-1.6l8 6c1 0.8 1 2.4 0 3.2z"></path>
</symbol>
<symbol id="print" viewBox="0 0 32 32">
<title>print</title>
<path d="M6 0h20v6h-20v-6z"></path>
<path d="M30 10h-28c-1.2 0-2 0.8-2 2v12c0 1.2 0.8 2 2 2h4v4c0 1.2 0.8 2 2 2h16c1.2 0 2-0.8 2-2v-4h4c1.2 0 2-0.8 2-2v-12c0-1.2-0.8-2-2-2zM22 28h-12v-10h12v10z"></path>
</symbol>
<symbol id="quote" viewBox="0 0 32 32">
<title>quote</title>
<path d="M6.047 9.121c-2.37 2.963-2.712 5.949-2.016 8.038 2.632-2.090 6.289-1.652 8.517 0.428 2.25 2.102 2.443 5.796 1.008 8.189-1.208 2.013-3.328 3.225-5.694 3.225-5.385 0-7.861-4.75-7.861-10.079 0-3.46 0.882-6.56 2.646-9.298s4.426-4.947 7.987-6.627l0.957 1.865c-2.15 0.907-3.998 2.326-5.543 4.258zM23.584 9.121c-2.37 2.963-2.712 5.949-2.016 8.038 1.176-0.907 2.453-1.361 3.83-1.361 3.623 0 6.602 2.413 6.602 6.602 0 3.851-2.956 6.602-6.602 6.602-5.385 0-7.861-4.75-7.861-10.079 0-3.46 0.882-6.56 2.646-9.298s4.426-4.947 7.987-6.627l0.957 1.865c-2.15 0.907-3.998 2.327-5.543 4.258z"></path>
</symbol>
<symbol id="refresh-01" viewBox="0 0 32 32">
<title>refresh-01</title>
<path d="M30.188 14.062l-1.078-12.422-3.86 3.86c-2.544-2.236-5.83-3.5-9.25-3.5-7.72 0-14 6.28-14 14s6.28 14 14 14c4.982 0 9.628-2.682 12.126-6.998l-3.462-2.002c-1.786 3.084-5.106 5-8.664 5-5.514 0-10-4.486-10-10s4.486-10 10-10c2.358 0 4.622 0.846 6.41 2.34l-4.644 4.644 12.422 1.078z"></path>
</symbol>
<symbol id="refresh-02" viewBox="0 0 32 32">
<title>refresh-02</title>
<path d="M16 6c2.358 0 4.622 0.846 6.41 2.34l-4.644 4.644 12.422 1.078-1.078-12.422-3.86 3.86c-2.544-2.236-5.83-3.5-9.25-3.5-6.866 0-12.672 4.908-13.806 11.668l3.946 0.662c0.808-4.826 4.956-8.33 9.86-8.33z"></path>
<path d="M16 26c-2.358 0-4.622-0.846-6.41-2.34l4.644-4.644-12.422-1.078 1.078 12.422 3.86-3.86c2.544 2.236 5.83 3.5 9.25 3.5 6.866 0 12.672-4.908 13.806-11.668l-3.946-0.662c-0.808 4.826-4.956 8.33-9.86 8.33z"></path>
</symbol>
<symbol id="refresh-19" viewBox="0 0 32 32">
<title>refresh-19</title>
<path d="M15.4 2.4l1.4 12.8 4.2-4.2c3.8 3.8 3.8 10.2 0 14-1.8 2-4.4 3-7 3s-5.2-1-7-3c-3.8-3.8-3.8-10.2 0-14 1.2-1.2 2.8-2.2 4.6-2.6l-1.2-3.8c-2.4 0.6-4.6 1.8-6.4 3.6-5.4 5.4-5.4 14.2 0 19.8 2.6 2.6 6.2 4 9.8 4 3.8 0 7.2-1.4 9.8-4 5.4-5.4 5.4-14.2 0-19.8l4.4-4.4-12.6-1.4z"></path>
</symbol>
<symbol id="replay" viewBox="0 0 32 32">
<title>replay</title>
<path d="M30 6h-4v4h2v12h-12v-4l-8 6 8 6v-4h14c1.2 0 2-0.8 2-2v-16c0-1.2-0.8-2-2-2z"></path>
<path d="M4 10h12v4l8-6-8-6v4h-14c-1.2 0-2 0.8-2 2v16c0 1.2 0.8 2 2 2h4v-4h-2v-12z"></path>
</symbol>
<symbol id="round-dollar" viewBox="0 0 32 32">
<title>round-dollar</title>
<path d="M18.123 20.752c0.309-0.217 0.72-0.62 0.72-1.619 0-0.709-0.481-1.135-1.509-1.575v3.545c0.3-0.092 0.576-0.201 0.789-0.352z"></path>
<path d="M16 0c-8.823 0-16 7.177-16 16s7.177 16 16 16 16-7.177 16-16-7.177-16-16-16zM21.509 19.135c0 2.065-1.008 3.207-1.855 3.801-0.663 0.465-1.461 0.743-2.321 0.903v2.828h-2.667v-2.716c-1.535-0.116-3.1-0.481-4.453-0.969l-1.253-0.452 0.905-2.508 1.255 0.453c1.227 0.443 2.445 0.707 3.547 0.808v-4.679c-2.119-0.76-4.469-1.947-4.469-4.963 0-1.504 0.697-2.745 1.965-3.495 0.723-0.427 1.592-0.657 2.504-0.765v-2.048h2.667v2.068c1.569 0.183 3.007 0.613 3.808 1.056l1.169 0.641-1.284 2.337-1.168-0.643c-0.577-0.317-1.52-0.576-2.525-0.716v4.619c2.037 0.72 4.176 1.763 4.176 4.439z"></path>
<path d="M13.521 10.444c-0.46 0.272-0.657 0.629-0.657 1.197 0 1.009 0.572 1.56 1.803 2.095v-3.661c-0.437 0.076-0.84 0.188-1.145 0.369z"></path>
</symbol>
<symbol id="round-e-info" viewBox="0 0 32 32">
<title>round-e-info</title>
<path d="M16 0c-8.8 0-16 7.2-16 16s7.2 16 16 16 16-7.2 16-16-7.2-16-16-16zM16 28c-6.6 0-12-5.4-12-12s5.4-12 12-12 12 5.4 12 12-5.4 12-12 12z"></path>
<path d="M14 14h4v10h-4v-10z"></path>
<path d="M18 10c0 1.105-0.895 2-2 2s-2-0.895-2-2c0-1.105 0.895-2 2-2s2 0.895 2 2z"></path>
</symbol>
<symbol id="search-1" viewBox="0 0 32 32">
<title>search-1</title>
<path d="M14.212 24.050c-5.566 0-10.136-4.372-10.136-9.938s4.572-10.136 10.136-10.136 10.136 4.572 10.136 10.136-4.572 9.938-10.136 9.938zM25.342 22.46c1.736-2.262 2.782-5.133 2.782-8.248 0-0.035-0-0.070-0-0.105l0 0.005c0-7.752-6.162-14.112-13.912-14.112-7.752 0-14.112 6.36-14.112 14.112s6.36 14.112 14.112 14.112c3.18 0 6.162-0.994 8.348-2.782l5.962 5.962c0.398 0.398 0.994 0.596 1.39 0.596 0.398 0 0.994-0.198 1.392-0.596 0.368-0.35 0.597-0.844 0.597-1.391s-0.229-1.041-0.596-1.39l-0.001-0.001-5.962-6.162z"></path>
</symbol>
<symbol id="search-2" viewBox="0 0 32 32">
<title>search-2</title>
<path d="M1.333 13.333h9.333c0.736 0 1.333-0.597 1.333-1.333v0c0-0.736-0.597-1.333-1.333-1.333h-9.333c-0.737 0-1.333 0.597-1.333 1.333s0.596 1.333 1.333 1.333z"></path>
<path d="M1.333 21.333h9.333c0.736 0 1.333-0.597 1.333-1.333v0c0-0.736-0.597-1.333-1.333-1.333h-9.333c-0.737 0-1.333 0.597-1.333 1.333s0.596 1.333 1.333 1.333z"></path>
<path d="M21.333 26.667h-20c-0.737 0-1.333 0.597-1.333 1.333s0.596 1.333 1.333 1.333h20c0.737 0 1.333-0.597 1.333-1.333s-0.596-1.333-1.333-1.333z"></path>
<path d="M1.333 5.333h20c0.737 0 1.333-0.597 1.333-1.333s-0.596-1.333-1.333-1.333h-20c-0.737 0-1.333 0.597-1.333 1.333s0.596 1.333 1.333 1.333z"></path>
<path d="M31.609 24.391l-4.72-4.72c0.699-1.055 1.111-2.315 1.111-3.671 0-3.676-2.991-6.667-6.667-6.667s-6.667 2.991-6.667 6.667 2.991 6.667 6.667 6.667c1.356 0 2.616-0.412 3.671-1.111l4.72 4.72c0.26 0.26 0.601 0.391 0.943 0.391s0.683-0.131 0.943-0.391c0.521-0.521 0.521-1.364 0-1.885zM21.333 20c-2.209 0-4-1.791-4-4s1.791-4 4-4 4 1.791 4 4-1.791 4-4 4z"></path>
</symbol>
<symbol id="select-83" viewBox="0 0 32 32">
<title>select-83</title>
<path d="M4 12h24l-12-12z"></path>
<path d="M16 32l12-12h-24z"></path>
</symbol>
<symbol id="select-84" viewBox="0 0 32 32">
<title>select-84</title>
<path d="M14.8 2.4l-10 8 2.4 3.2 8.8-7 8.8 7 2.4-3.2-10-8c-0.6-0.6-1.8-0.6-2.4 0z"></path>
<path d="M16 25.4l-8.8-7-2.4 3.2 10 8c0.4 0.2 0.8 0.4 1.2 0.4s0.8-0.2 1.2-0.4l10-8-2.4-3.2-8.8 7z"></path>
</symbol>
<symbol id="send" viewBox="0 0 32 32">
<title>send</title>
<path d="M7.2 19.2v9.8c0 1.4 1.6 2 2.6 1l4.6-5.4 9.4 7c0.8 0.6 2 0.2 2.2-0.8l6-29c0.2-1.2-0.8-2-2-1.6l-29 11.6c-1 0.4-1.2 1.8-0.4 2.6l3.2 2.4 9.2-4.4c0.8-0.4 1.4 0.6 0.8 1l-6.6 5.8z"></path>
</symbol>
<symbol id="settings-gear-64-2" viewBox="0 0 32 32">
<title>settings-gear-64-2</title>
<path d="M26.6 10.4l2.2-4.2-2.8-2.8-4.2 2.2c-0.6-0.4-1.4-0.6-2.2-0.8l-1.6-4.8h-4l-1.6 4.6c-0.6 0.2-1.4 0.4-2 0.8l-4.2-2.2-3 3 2.2 4.2c-0.4 0.6-0.6 1.4-0.8 2l-4.6 1.6v4l4.6 1.6c0.2 0.8 0.6 1.4 0.8 2.2l-2.2 4.2 2.8 2.8 4.2-2.2c0.6 0.4 1.4 0.6 2.2 0.8l1.6 4.6h4l1.6-4.6c0.8-0.2 1.4-0.6 2.2-0.8l4.2 2.2 2.8-2.8-2.2-4.2c0.4-0.6 0.6-1.4 0.8-2.2l4.6-1.6v-4l-4.6-1.6c-0.2-0.6-0.4-1.4-0.8-2zM16 22c-3.4 0-6-2.6-6-6s2.6-6 6-6 6 2.6 6 6-2.6 6-6 6z"></path>
</symbol>
<symbol id="settings-gear-64" viewBox="0 0 32 32">
<title>settings-gear-64</title>
<path d="M26.6 10.4l2.2-4.2-2.8-2.8-4.2 2.2c-0.6-0.4-1.4-0.6-2.2-0.8l-1.6-4.8h-4l-1.6 4.6c-0.6 0.2-1.4 0.4-2 0.8l-4.2-2.2-3 3 2.2 4.2c-0.4 0.6-0.6 1.4-0.8 2l-4.6 1.6v4l4.6 1.6c0.2 0.8 0.6 1.4 0.8 2.2l-2.2 4.2 2.8 2.8 4.2-2.2c0.6 0.4 1.4 0.6 2.2 0.8l1.6 4.6h4l1.6-4.6c0.8-0.2 1.4-0.6 2.2-0.8l4.2 2.2 2.8-2.8-2.2-4.2c0.4-0.6 0.6-1.4 0.8-2.2l4.6-1.6v-4l-4.6-1.6c-0.2-0.6-0.4-1.4-0.8-2zM16 22c-3.4 0-6-2.6-6-6s2.6-6 6-6 6 2.6 6 6-2.6 6-6 6z"></path>
</symbol>
<symbol id="share-2" viewBox="0 0 32 32">
<title>share-2</title>
<path d="M24 12c3.308 0 6-2.692 6-6s-2.692-6-6-6-6 2.692-6 6c0 0.446 0.058 0.878 0.15 1.298l-6.44 4.024c-1.024-0.814-2.302-1.322-3.71-1.322-3.308 0-6 2.692-6 6s2.692 6 6 6c1.408 0 2.686-0.508 3.71-1.322l6.44 4.024c-0.092 0.42-0.15 0.852-0.15 1.298 0 3.308 2.692 6 6 6s6-2.692 6-6-2.692-6-6-6c-1.408 0-2.686 0.508-3.71 1.322l-6.44-4.024c0.092-0.42 0.15-0.852 0.15-1.298s-0.058-0.878-0.15-1.298l6.44-4.024c1.024 0.814 2.302 1.322 3.71 1.322z"></path>
</symbol>
<symbol id="share-26" viewBox="0 0 32 32">
<title>share-26</title>
<path d="M30 0h-14v4h9.2l-12.6 12.6 2.8 2.8 12.6-12.6v9.2h4v-14c0-1.2-0.8-2-2-2z"></path>
<path d="M28 32h-26c-1.2 0-2-0.8-2-2v-26c0-1.2 0.8-2 2-2h8v4h-6v22h22v-6h4v8c0 1.2-0.8 2-2 2z"></path>
</symbol>
<symbol id="share-91" viewBox="0 0 32 32">
<title>share-91</title>
<path d="M30 32h-28c-1.2 0-2-0.8-2-2v-24c0-1.2 0.8-2 2-2h6v4h-4v20h24v-10h4v12c0 1.2-0.8 2-2 2z"></path>
<path d="M20 6c-6.4 0-12 5-12 14 2.2-3.4 4.8-6 12-6v6l12-10-12-10v6z"></path>
</symbol>
<symbol id="share-92" viewBox="0 0 32 32">
<title>share-92</title>
<path d="M30 32h-28c-1.2 0-2-0.8-2-2v-12h4v10h24v-20h-4v-4h6c1.2 0 2 0.8 2 2v24c0 1.2-0.8 2-2 2z"></path>
<path d="M12 6c6.4 0 12 5 12 14-2.2-3.4-4.8-6-12-6v6l-12-10 12-10v6z"></path>
</symbol>
<symbol id="shuffle-98" viewBox="0 0 32 32">
<title>shuffle-98</title>
<path d="M24 22c-2.986 0-4.024-1.066-5.684-2.962l-2.658 3.038c2.166 2.474 4.492 3.924 8.342 3.924v4l8-6-8-6v4z"></path>
<path d="M7.684 12.962l2.658-3.038c-2.1-2.4-4.544-3.924-7.972-3.924h-2.37v4h2.37c2.562 0 3.804 1.238 5.314 2.962z"></path>
<path d="M24 6c-3.434 0-6.036 1.29-7.896 3.416l-9.22 10.534c-1.138 1.302-2.784 2.050-4.514 2.050h-2.37v4h2.37c2.882 0 5.626-1.246 7.528-3.416l9.218-10.536c1.322-1.512 2.958-2.048 4.884-2.048v4l8-6-8-6v4z"></path>
</symbol>
<symbol id="simple-add" viewBox="0 0 32 32">
<title>simple-add</title>
<path d="M30 14h-12v-12c0-1.2-0.8-2-2-2s-2 0.8-2 2v12h-12c-1.2 0-2 0.8-2 2s0.8 2 2 2h12v12c0 1.2 0.8 2 2 2s2-0.8 2-2v-12h12c1.2 0 2-0.8 2-2s-0.8-2-2-2z"></path>
</symbol>
<symbol id="simple-remove" viewBox="0 0 32 32">
<title>simple-remove</title>
<path d="M29.4 2.6c-0.8-0.8-2-0.8-2.8 0l-10.6 10.6-10.6-10.6c-0.8-0.8-2-0.8-2.8 0s-0.8 2 0 2.8l10.6 10.6-10.6 10.6c-0.8 0.8-0.8 2 0 2.8 0.4 0.4 0.8 0.6 1.4 0.6s1-0.2 1.4-0.6l10.6-10.6 10.6 10.6c0.4 0.4 1 0.6 1.4 0.6s1-0.2 1.4-0.6c0.8-0.8 0.8-2 0-2.8l-10.6-10.6 10.6-10.6c0.8-0.8 0.8-2 0-2.8z"></path>
</symbol>
<symbol id="single-01" viewBox="0 0 32 32">
<title>single-01</title>
<path d="M24 8c0 4.418-3.582 8-8 8s-8-3.582-8-8c0-4.418 3.582-8 8-8s8 3.582 8 8z"></path>
<path d="M32 26.4c0-0.005 0-0.011 0-0.017 0-1.598-0.942-2.976-2.302-3.609l-0.025-0.010c-3.915-1.748-8.483-2.766-13.29-2.766-0.135 0-0.27 0.001-0.405 0.002l0.021-0c-0.114-0.001-0.249-0.002-0.384-0.002-4.806 0-9.375 1.018-13.502 2.85l0.212-0.084c-1.384 0.643-2.326 2.021-2.326 3.619 0 0.006 0 0.012 0 0.018v-0.001 5.6h32z"></path>
</symbol>
<symbol id="single-copy-04" viewBox="0 0 32 32">
<title>single-copy-04</title>
<path d="M20 8h-16c-1.2 0-2 0.8-2 2v20c0 1.2 0.8 2 2 2h16c1.2 0 2-0.8 2-2v-20c0-1.2-0.8-2-2-2z"></path>
<path d="M28 0h-20v4h18v22h4v-24c0-1.2-0.8-2-2-2z"></path>
</symbol>
<symbol id="slider" viewBox="0 0 32 32">
<title>slider</title>
<path d="M30 20h-28c-1.104 0-2-0.896-2-2v-16c0-1.104 0.896-2 2-2h28c1.104 0 2 0.896 2 2v16c0 1.104-0.896 2-2 2z"></path>
<path d="M20 28c0 2.209-1.791 4-4 4s-4-1.791-4-4c0-2.209 1.791-4 4-4s4 1.791 4 4z"></path>
<path d="M8 28c0 1.105-0.895 2-2 2s-2-0.895-2-2c0-1.105 0.895-2 2-2s2 0.895 2 2z"></path>
<path d="M28 28c0 1.105-0.895 2-2 2s-2-0.895-2-2c0-1.105 0.895-2 2-2s2 0.895 2 2z"></path>
</symbol>
<symbol id="small-delete" viewBox="0 0 32 32">
<title>small-delete</title>
<path d="M8 14h16v4h-16v-4z"></path>
</symbol>
<symbol id="small-down" viewBox="0 0 32 32">
<title>small-down</title>
<path d="M16 22.8l-10.8-10.8 2.8-2.8 8 8 8-8 2.8 2.8z"></path>
</symbol>
<symbol id="small-left" viewBox="0 0 32 32">
<title>small-left</title>
<path d="M20 26.8l-10.8-10.8 10.8-10.8 2.8 2.8-8 8 8 8z"></path>
</symbol>
<symbol id="small-right" viewBox="0 0 32 32">
<title>small-right</title>
<path d="M12 26.8l-2.8-2.8 8-8-8-8 2.8-2.8 10.8 10.8z"></path>
</symbol>
<symbol id="small-triangle-down" viewBox="0 0 32 32">
<title>small-triangle-down</title>
<path d="M6 10l10 12 10-12z"></path>
</symbol>
<symbol id="small-triangle-left" viewBox="0 0 32 32">
<title>small-triangle-left</title>
<path d="M22 6l-12 10 12 10z"></path>
</symbol>
<symbol id="small-triangle-right" viewBox="0 0 32 32">
<title>small-triangle-right</title>
<path d="M10 26l12-10-12-10z"></path>
</symbol>
<symbol id="small-triangle-up" viewBox="0 0 32 32">
<title>small-triangle-up</title>
<path d="M26 22l-10-12-10 12z"></path>
</symbol>
<symbol id="small-up" viewBox="0 0 32 32">
<title>small-up</title>
<path d="M24 22.8l-8-8-8 8-2.8-2.8 10.8-10.8 10.8 10.8z"></path>
</symbol>
<symbol id="square-add-11" viewBox="0 0 32 32">
<title>square-add-11</title>
<path d="M14 24h4v-6h6v-4h-6v-6h-4v6h-6v4h6z"></path>
<path d="M30 0h-28c-1.2 0-2 0.8-2 2v28c0 1.2 0.8 2 2 2h28c1.2 0 2-0.8 2-2v-28c0-1.2-0.8-2-2-2zM28 28h-24v-24h24v24z"></path>
</symbol>
<symbol id="square-delete-13" viewBox="0 0 32 32">
<title>square-delete-13</title>
<path d="M8 14h16v4h-16v-4z"></path>
<path d="M30 0h-28c-1.2 0-2 0.8-2 2v28c0 1.2 0.8 2 2 2h28c1.2 0 2-0.8 2-2v-28c0-1.2-0.8-2-2-2zM28 28h-24v-24h24v24z"></path>
</symbol>
<symbol id="square-remove-12" viewBox="0 0 32 32">
<title>square-remove-12</title>
<path d="M11.8 23l4.2-4.2 4.2 4.2 2.8-2.8-4.2-4.2 4.2-4.2-2.8-2.8-4.2 4.2-4.2-4.2-2.8 2.8 4.2 4.2-4.2 4.2z"></path>
<path d="M30 0h-28c-1.2 0-2 0.8-2 2v28c0 1.2 0.8 2 2 2h28c1.2 0 2-0.8 2-2v-28c0-1.2-0.8-2-2-2zM28 28h-24v-24h24v24z"></path>
</symbol>
<symbol id="swap-horizontal" viewBox="0 0 32 32">
<title>swap-horizontal</title>
<path d="M10 6v-6l-10 8 10 8v-6h16c1.104 0 2-0.896 2-2v0c0-1.104-0.896-2-2-2h-16z"></path>
<path d="M22 22h-16c-1.104 0-2 0.896-2 2v0c0 1.104 0.896 2 2 2h16v6l10-8-10-8v6z"></path>
</symbol>
<symbol id="swap-vertical" viewBox="0 0 32 32">
<title>swap-vertical</title>
<path d="M6 10h-6l8-10 8 10h-6v16c0 1.104-0.896 2-2 2v0c-1.104 0-2-0.896-2-2v-16z"></path>
<path d="M22 22v-16c0-1.104 0.896-2 2-2v0c1.104 0 2 0.896 2 2v16h6l-8 10-8-10h6z"></path>
</symbol>
<symbol id="tag" viewBox="0 0 32 32">
<title>tag</title>
<path d="M31.4 16.6l-16-16c-0.4-0.4-0.8-0.6-1.4-0.6h-12c-1.2 0-2 0.8-2 2v12c0 0.6 0.2 1 0.6 1.4l16 16c0.4 0.4 0.8 0.6 1.4 0.6s1-0.2 1.4-0.6l12-12c0.8-0.8 0.8-2 0-2.8zM8 10c-1.2 0-2-0.8-2-2s0.8-2 2-2c1.2 0 2 0.8 2 2s-0.8 2-2 2z"></path>
</symbol>
<symbol id="tail-down" viewBox="0 0 32 32">
<title>tail-down</title>
<path d="M29.4 18.6l-2.8-2.8-8.6 8.6v-24.4h-4v24.4l-8.6-8.6-2.8 2.8 13.4 13.4z"></path>
</symbol>
<symbol id="tail-left" viewBox="0 0 32 32">
<title>tail-left</title>
<path d="M13.4 29.4l2.8-2.8-8.6-8.6h24.4v-4h-24.4l8.6-8.6-2.8-2.8-13.4 13.4z"></path>
</symbol>
<symbol id="tail-right" viewBox="0 0 32 32">
<title>tail-right</title>
<path d="M18.6 2.6l-2.8 2.8 8.6 8.6h-24.4v4h24.4l-8.6 8.6 2.8 2.8 13.4-13.4z"></path>
</symbol>
<symbol id="tail-up" viewBox="0 0 32 32">
<title>tail-up</title>
<path d="M2.6 13.4l2.8 2.8 8.6-8.6v24.4h4v-24.4l8.6 8.6 2.8-2.8-13.4-13.4z"></path>
</symbol>
<symbol id="tap-01" viewBox="0 0 32 32">
<title>tap-01</title>
<path d="M19.744 13.001c-0.197 0-0.397-0.058-0.571-0.18-0.453-0.316-0.564-0.939-0.248-1.393 0.704-1.008 1.075-2.193 1.075-3.428 0-3.309-2.691-6-6-6s-6 2.691-6 6c0 1.235 0.372 2.42 1.075 3.428 0.316 0.453 0.205 1.076-0.248 1.393s-1.076 0.206-1.393-0.248c-0.938-1.345-1.435-2.927-1.435-4.573 0-4.411 3.589-8 8-8s8 3.589 8 8c0 1.646-0.496 3.228-1.435 4.573-0.195 0.279-0.505 0.428-0.821 0.428z"></path>
<path d="M24.128 17.478l-8.128-1.478v-7c0-1.105-0.895-2-2-2s-2 0.895-2 2v13h-1v-3h-1c-1.105 0-2 0.895-2 2v2.895c0 1.362 0.464 2.684 1.315 3.748l2.685 3.356h13l1.556-10.114c0.247-1.606-0.83-3.117-2.428-3.408z"></path>
</symbol>
<symbol id="time-3" viewBox="0 0 32 32">
<title>time-3</title>
<path d="M16 0c-8.8 0-16 7.2-16 16s7.2 16 16 16 16-7.2 16-16-7.2-16-16-16zM24 18h-10v-10h4v6h6v4z"></path>
</symbol>
<symbol id="trash-simple" viewBox="0 0 32 32">
<title>trash-simple</title>
<path d="M10 14h4v12h-4v-12z"></path>
<path d="M18 14h4v12h-4v-12z"></path>
<path d="M24 2c0-1.2-0.8-2-2-2h-12c-1.2 0-2 0.8-2 2v4h-8v4h2v20c0 1.2 0.8 2 2 2h24c1.2 0 2-0.8 2-2v-20h2v-4h-8v-4zM12 4h8v2h-8v-2zM26 10v18h-20v-18h20z"></path>
</symbol>
<symbol id="trash" viewBox="0 0 32 32">
<title>trash</title>
<path d="M4 12v16c0 2.2 1.8 4 4 4h16c2.2 0 4-1.8 4-4v-16h-24z"></path>
<path d="M24 6v-4c0-1.2-0.8-2-2-2h-12c-1.2 0-2 0.8-2 2v4h-8v4h32v-4h-8zM20 6h-8v-2h8v2z"></path>
</symbol>
<symbol id="triangle-left" viewBox="0 0 32 32">
<title>triangle-left</title>
<path d="M8 16.002c0 0.652 0.318 1.264 0.854 1.638l20 14c0.61 0.428 1.408 0.476 2.070 0.136 0.662-0.346 1.076-1.028 1.076-1.774v-28.004c0-0.746-0.414-1.43-1.076-1.774-0.662-0.34-1.46-0.292-2.070 0.136l-20 14c-0.536 0.374-0.854 0.986-0.854 1.638 0 0.002 0 0.002 0 0.004 0-0.002 0-0.002 0 0z"></path>
<path d="M2 0c1.104 0 2 0.894 2 2v28c0 1.106-0.896 2-2 2s-2-0.894-2-2v-28c0-1.106 0.896-2 2-2z"></path>
</symbol>
<symbol id="triangle-right" viewBox="0 0 32 32">
<title>triangle-right</title>
<path d="M24 15.998c0-0.652-0.318-1.264-0.854-1.638l-20-14c-0.608-0.428-1.408-0.476-2.070-0.136-0.662 0.346-1.076 1.028-1.076 1.774v28.002c0 0.746 0.414 1.43 1.076 1.774 0.662 0.34 1.46 0.292 2.070-0.136l20-14c0.536-0.372 0.854-0.984 0.854-1.636 0-0.002 0-0.002 0-0.004 0 0.002 0 0.002 0 0z"></path>
<path d="M30 32c-1.104 0-2-0.894-2-2v-28c0-1.106 0.896-2 2-2s2 0.894 2 2v28c0 1.106-0.896 2-2 2z"></path>
</symbol>
<symbol id="tv-2-2" viewBox="0 0 32 32">
<title>tv-2-2</title>
<path d="M30 0h-28c-1.2 0-2 0.8-2 2v22c0 1.2 0.8 2 2 2h12v2h-8v4h20v-4h-8v-2h12c1.2 0 2-0.8 2-2v-22c0-1.2-0.8-2-2-2zM28 22h-24v-18h24v18z"></path>
</symbol>
<symbol id="underline" viewBox="0 0 32 32">
<title>underline</title>
<path d="M0 28h32v4h-32v-4z"></path>
<path d="M30 0h-12v2l2.894 1.447c0.678 0.339 1.106 1.031 1.106 1.789v8.527c0 2.902-1.956 5.567-4.804 6.12-3.83 0.744-7.196-2.184-7.196-5.884v-8.764c0-0.758 0.428-1.45 1.106-1.789l2.894-1.447v-2h-12v2l2.894 1.447c0.678 0.339 1.106 1.031 1.106 1.789v8.318c0 5.22 3.805 9.89 9 10.397 5.961 0.582 11-4.108 11-9.951v-8.764c0-0.758 0.428-1.45 1.106-1.789l2.894-1.447v-2z"></path>
</symbol>
<symbol id="users-wm-2" viewBox="0 0 32 32">
<title>users-wm-2</title>
<path d="M31.161 19.665l-4.989-2c-0.495-0.201-0.837-0.678-0.839-1.234v-1.171c1.602-0.932 2.662-2.638 2.667-4.593v-2.438c0-0.027 0.001-0.059 0.001-0.091 0-2.792-2.085-5.097-4.783-5.443l-0.027-0.003c-0.157-0.016-0.339-0.026-0.524-0.026-2.946 0-5.333 2.388-5.333 5.333 0 0 0 0 0 0.001v-0 2.667c0.004 1.955 1.065 3.662 2.641 4.58l0.025 0.014v1.171c-0.457 1.124-1.189 2.056-2.116 2.741l-0.017 0.012c-0.091 0.059-0.179 0.124-0.267 0.184l1.215 0.487c1.488 0.6 2.519 2.032 2.519 3.705 0 0.003 0 0.007 0 0.010v-0.001 3.097c-0.005 0.48-0.094 0.938-0.254 1.361l0.009-0.027h9.579c0.736 0 1.333-0.597 1.333-1.333v0-5.764c-0-0.558-0.343-1.036-0.83-1.234l-0.009-0.003z"></path>
<path d="M17.828 22.332l-4.989-2c-0.495-0.201-0.837-0.678-0.839-1.234v-0.602c1.625-0.149 3.1-0.683 4.368-1.509l-0.037 0.023c0.326-0.243 0.535-0.627 0.535-1.059 0-0.315-0.111-0.604-0.295-0.831l0.002 0.002c-1.034-1.19-1.724-2.703-1.902-4.369l-0.003-0.035c0.003-0.064 0.005-0.14 0.005-0.216 0-1.885-1.008-3.534-2.514-4.438l-0.023-0.013c-0.784-0.469-1.729-0.747-2.739-0.747-2.968 0-5.377 2.397-5.395 5.361v0.002c-0.165 1.721-0.859 3.255-1.913 4.466l0.008-0.009c-0.183 0.224-0.293 0.513-0.293 0.828 0 0.433 0.209 0.816 0.531 1.056l0.003 0.003c1.231 0.803 2.706 1.337 4.293 1.484l0.038 0.003v0.601c-0 0.558-0.343 1.036-0.83 1.234l-0.009 0.003-4.989 2c-0.495 0.201-0.837 0.678-0.839 1.234v3.098c0 0.736 0.597 1.333 1.333 1.333v0h16c0.736 0 1.333-0.597 1.333-1.333v0-3.097c-0-0.558-0.343-1.036-0.83-1.234l-0.009-0.003z"></path>
</symbol>
<symbol id="video-64" viewBox="0 0 32 32">
<title>video-64</title>
<path d="M22 12v-6c0-1.2-0.8-2-2-2h-18c-1.2 0-2 0.8-2 2v20c0 1.2 0.8 2 2 2h18c1.2 0 2-0.8 2-2v-6l10 4v-16l-10 4z"></path>
</symbol>
<symbol id="Weather-1" viewBox="0 0 32 32">
<title>Weather-1</title>
<path d="M3.2 15.2h3.2v1.6h-3.2z"></path>
<path d="M6.384 7.515l1.131-1.131 2.263 2.263-1.131 1.131z"></path>
<path d="M15.2 3.2h1.6v3.2h-1.6z"></path>
<path d="M22.223 8.646l2.263-2.263 1.131 1.131-2.263 2.263z"></path>
<path d="M25.6 15.2h3.2v1.6h-3.2z"></path>
<path d="M22.222 23.354l1.131-1.131 2.263 2.263-1.131 1.131z"></path>
<path d="M15.2 25.6h1.6v3.2h-1.6z"></path>
<path d="M6.383 24.485l2.263-2.263 1.131 1.131-2.263 2.263z"></path>
<path d="M16 8.8c-3.97 0-7.2 3.23-7.2 7.2s3.23 7.2 7.2 7.2 7.2-3.23 7.2-7.2-3.23-7.2-7.2-7.2z"></path>
</symbol>
<symbol id="Weather-2" viewBox="0 0 32 32">
<title>Weather-2</title>
<path d="M16.218 10.133c0.736-0.82 1.799-1.334 2.982-1.334 2.209 0 4 1.791 4 4 0 0 0 0.001 0 0.001v-0c0 0.442 0.358 0.8 0.8 0.8s0.8-0.358 0.8-0.8v0c0-3.087-2.513-5.6-5.6-5.6-1.656 0-3.145 0.719-4.171 1.862l-0.005 0.005c-0.126 0.141-0.203 0.328-0.203 0.533 0 0.442 0.358 0.8 0.8 0.8 0.237 0 0.45-0.103 0.596-0.266l0.001-0.001z"></path>
<path d="M24 14.4c-0.001 0-0.002 0-0.002 0-0.894 0-1.73 0.246-2.444 0.675l0.022-0.012c-1.228-2.313-3.621-3.861-6.375-3.863h-0c-0.004 0-0.009 0-0.014 0-2.537 0-4.766 1.319-6.040 3.308l-0.017 0.029c-0.339-0.087-0.728-0.136-1.129-0.137h-0c-2.647 0-4.8 2.153-4.8 4.8s2.153 4.8 4.8 4.8h3.2v-3.2c0-0.442 0.358-0.8 0.8-0.8s0.8 0.358 0.8 0.8v0 3.2h2.4v-1.6c0-0.442 0.358-0.8 0.8-0.8s0.8 0.358 0.8 0.8v0 1.6h2.4v-3.2c0-0.442 0.358-0.8 0.8-0.8s0.8 0.358 0.8 0.8v0 3.2h3.2c2.647 0 4.8-2.153 4.8-4.8s-2.153-4.8-4.8-4.8z"></path>
<path d="M18.4 3.2h1.6v2.4h-1.6z"></path>
<path d="M23.725 7.142l1.697-1.697 1.132 1.131-1.697 1.697z"></path>
<path d="M26.4 12h2.4v1.6h-2.4z"></path>
<path d="M11.846 6.577l1.132-1.131 1.697 1.697-1.132 1.131z"></path>
<path d="M11.2 26.4c0 0.442 0.358 0.8 0.8 0.8s0.8-0.358 0.8-0.8v0-2.4h-1.6v2.4z"></path>
<path d="M15.2 28c0 0.442 0.358 0.8 0.8 0.8s0.8-0.358 0.8-0.8v0-4h-1.6v4z"></path>
<path d="M19.2 26.4c0 0.442 0.358 0.8 0.8 0.8s0.8-0.358 0.8-0.8v0-2.4h-1.6v2.4z"></path>
</symbol>
<symbol id="Weather-3" viewBox="0 0 32 32">
<title>Weather-3</title>
<path d="M16.218 10.133c0.736-0.82 1.799-1.334 2.982-1.334 2.209 0 4 1.791 4 4 0 0 0 0.001 0 0.001v-0c0 0.442 0.358 0.8 0.8 0.8s0.8-0.358 0.8-0.8v0c0-3.087-2.513-5.6-5.6-5.6-1.656 0-3.145 0.719-4.171 1.862l-0.005 0.005c-0.126 0.141-0.203 0.328-0.203 0.533 0 0.442 0.358 0.8 0.8 0.8 0.237 0 0.45-0.103 0.596-0.266l0.001-0.001z"></path>
<path d="M18.4 3.2h1.6v2.4h-1.6z"></path>
<path d="M23.725 7.141l1.697-1.697 1.132 1.131-1.697 1.697z"></path>
<path d="M26.4 12h2.4v1.6h-2.4z"></path>
<path d="M11.846 6.577l1.132-1.131 1.697 1.697-1.132 1.131z"></path>
<path d="M24 14.4c-0.001 0-0.002 0-0.002 0-0.894 0-1.73 0.246-2.444 0.675l0.022-0.012c-1.228-2.313-3.621-3.861-6.375-3.863h-0c-0.004 0-0.009 0-0.014 0-2.537 0-4.766 1.319-6.040 3.308l-0.017 0.029c-0.339-0.087-0.728-0.136-1.129-0.137h-0c-2.647 0-4.8 2.153-4.8 4.8s2.153 4.8 4.8 4.8h1.761c-0.253-0.71-0.182-1.495 0.243-2.132l4.8-7.199c0.434-0.648 1.164-1.069 1.991-1.069 0.001 0 0.003 0 0.004 0h-0c0.362 0 0.726 0.083 1.051 0.242 0.804 0.402 1.347 1.22 1.347 2.164 0 0.269-0.044 0.527-0.125 0.769l0.005-0.017-0.547 1.642h1.47c0.001 0 0.001 0 0.002 0 1.325 0 2.399 1.074 2.399 2.399 0 0.497-0.151 0.958-0.41 1.341l0.005-0.009-1.246 1.868h3.249c2.647 0 4.8-2.153 4.8-4.8s-2.153-4.8-4.8-4.8z"></path>
<path d="M20.706 20.423c-0.138-0.254-0.402-0.423-0.706-0.423h-3.69l1.25-3.747c0.026-0.075 0.041-0.162 0.041-0.253 0-0.314-0.18-0.586-0.443-0.717l-0.005-0.002c-0.103-0.051-0.224-0.082-0.352-0.082-0.276 0-0.52 0.14-0.663 0.354l-0.002 0.003-4.8 7.2c-0.085 0.125-0.136 0.279-0.136 0.446 0 0.441 0.357 0.798 0.798 0.798 0.001 0 0.002 0 0.002 0h3.69l-1.25 3.747c-0.024 0.073-0.039 0.158-0.039 0.246 0 0.443 0.359 0.802 0.802 0.802 0.274 0 0.516-0.138 0.661-0.348l0.002-0.003 4.8-7.2c0.084-0.125 0.134-0.278 0.134-0.443 0-0.138-0.035-0.268-0.097-0.382l0.002 0.004z"></path>
</symbol>
<symbol id="Weather-4" viewBox="0 0 32 32">
<title>Weather-4</title>
<path d="M16.218 10.133c0.736-0.82 1.799-1.334 2.982-1.334 2.209 0 4 1.791 4 4 0 0 0 0.001 0 0.001v-0c0 0.442 0.358 0.8 0.8 0.8s0.8-0.358 0.8-0.8v0c0-3.087-2.513-5.6-5.6-5.6-1.656 0-3.145 0.719-4.171 1.862l-0.005 0.005c-0.126 0.141-0.203 0.328-0.203 0.533 0 0.442 0.358 0.8 0.8 0.8 0.237 0 0.45-0.103 0.596-0.266l0.001-0.001z"></path>
<path d="M18.4 3.2h1.6v2.4h-1.6z"></path>
<path d="M23.725 7.142l1.697-1.697 1.132 1.131-1.697 1.697z"></path>
<path d="M26.4 12h2.4v1.6h-2.4z"></path>
<path d="M11.845 6.576l1.131-1.131 1.697 1.697-1.131 1.131z"></path>
<path d="M24 14.4c-0.001 0-0.002 0-0.002 0-0.894 0-1.73 0.246-2.444 0.675l0.022-0.012c-1.228-2.313-3.621-3.861-6.375-3.863h-0c-0.004 0-0.009 0-0.014 0-2.537 0-4.766 1.319-6.040 3.308l-0.017 0.029c-0.339-0.087-0.728-0.136-1.129-0.137h-0c-2.647 0-4.8 2.153-4.8 4.8 0.003 2.48 1.883 4.52 4.296 4.774l0.021 0.002v2.424c0 0.442 0.358 0.8 0.8 0.8s0.8-0.358 0.8-0.8v0-2.4h0.643c-0.253-0.71-0.182-1.495 0.243-2.132l4.8-7.199c0.435-0.648 1.165-1.069 1.993-1.069 0.001 0 0.002 0 0.003 0h-0c0.362 0 0.726 0.083 1.051 0.242 0.804 0.402 1.347 1.22 1.347 2.164 0 0.269-0.044 0.527-0.125 0.769l0.005-0.017-0.547 1.642h1.47c0.001 0 0.001 0 0.002 0 1.325 0 2.399 1.074 2.399 2.399 0 0.497-0.151 0.958-0.41 1.341l0.005-0.009-1.246 1.868h2.282v2.4c0 0.442 0.358 0.8 0.8 0.8s0.8-0.358 0.8-0.8v0-2.446c2.348-0.312 4.166-2.322 4.166-4.754 0-2.647-2.153-4.8-4.8-4.8z"></path>
<path d="M20.706 20.423c-0.138-0.254-0.402-0.423-0.706-0.423h-3.69l1.25-3.747c0.026-0.075 0.041-0.162 0.041-0.253 0-0.314-0.18-0.586-0.443-0.717l-0.005-0.002c-0.103-0.051-0.224-0.082-0.352-0.082-0.276 0-0.52 0.14-0.663 0.354l-0.002 0.003-4.8 7.2c-0.085 0.125-0.136 0.279-0.136 0.446 0 0.441 0.357 0.798 0.798 0.798 0.001 0 0.002 0 0.002 0h3.69l-1.25 3.747c-0.024 0.073-0.039 0.158-0.039 0.246 0 0.443 0.359 0.802 0.802 0.802 0.274 0 0.516-0.138 0.661-0.348l0.002-0.003 4.8-7.2c0.084-0.125 0.134-0.278 0.134-0.443 0-0.138-0.035-0.268-0.097-0.382l0.002 0.004z"></path>
<path d="M11.52 25.793c-0.442 0-0.8 0.358-0.8 0.8v0 1.407c0 0.442 0.358 0.8 0.8 0.8s0.8-0.358 0.8-0.8v0-1.407c0-0.442-0.358-0.8-0.8-0.8v0z"></path>
<path d="M20.634 25.793c-0.442 0-0.8 0.358-0.8 0.8v0 1.407c0 0.442 0.358 0.8 0.8 0.8s0.8-0.358 0.8-0.8v0-1.407c0-0.442-0.358-0.8-0.8-0.8v0z"></path>
</symbol>
<symbol id="Weather-5" viewBox="0 0 32 32">
<title>Weather-5</title>
<path d="M24.64 14.48c-0.64-4.16-4.32-7.28-8.64-7.28-3.76 0-7.040 2.32-8.24 5.76-2.72 0.72-4.56 3.040-4.56 5.84 0 3.12 2.4 5.76 5.6 6h15.28c2.64-0.24 4.72-2.56 4.72-5.2 0-2.48-1.76-4.56-4.16-5.12z"></path>
</symbol>
<symbol id="Weather-6" viewBox="0 0 32 32">
<title>Weather-6</title>
<path d="M8.358 15.11c1.634-1.967 4.081-3.21 6.818-3.21 0.009 0 0.017 0 0.026 0h-0.001c2.789 0 5.366 1.29 7.031 3.447 0.53-0.157 1.139-0.247 1.769-0.247 1.405 0 2.705 0.449 3.765 1.211l-0.019-0.013c0.012-0.13 0.038-0.258 0.038-0.39 0-2.062-1.463-3.79-3.458-4.255-0.532-3.458-3.591-6.051-7.182-6.051-3.125 0-5.851 1.928-6.849 4.787-2.261 0.598-3.79 2.526-3.79 4.854l0.002 0.038c0.453-0.113 0.974-0.178 1.51-0.178 0.12 0 0.238 0.003 0.356 0.010l-0.016-0.001z"></path>
<path d="M24 16.8c-0.001 0-0.002 0-0.002 0-0.894 0-1.73 0.247-2.444 0.675l0.022-0.012c-1.228-2.313-3.621-3.861-6.375-3.863h-0c-0.004 0-0.009 0-0.014 0-2.537 0-4.766 1.319-6.040 3.308l-0.017 0.029c-0.339-0.087-0.728-0.137-1.129-0.137h-0c-2.647 0-4.8 2.153-4.8 4.8s2.153 4.8 4.8 4.8h16c2.647 0 4.8-2.153 4.8-4.8s-2.153-4.8-4.8-4.8z"></path>
</symbol>
<symbol id="Weather-7" viewBox="0 0 32 32">
<title>Weather-7</title>
<path d="M24 14.4c-0.001 0-0.002 0-0.002 0-0.894 0-1.73 0.246-2.444 0.675l0.022-0.012c-1.228-2.313-3.621-3.861-6.375-3.863h-0c-0.004 0-0.009 0-0.014 0-2.537 0-4.766 1.319-6.040 3.308l-0.017 0.029c-0.339-0.087-0.728-0.136-1.129-0.137h-0c-2.647 0-4.8 2.153-4.8 4.8s2.153 4.8 4.8 4.8h1.761c-0.253-0.71-0.182-1.495 0.243-2.132l4.8-7.199c0.434-0.648 1.164-1.069 1.991-1.069 0.001 0 0.003 0 0.004 0h-0c0.362 0 0.726 0.083 1.051 0.242 0.804 0.402 1.347 1.22 1.347 2.164 0 0.269-0.044 0.527-0.125 0.769l0.005-0.017-0.547 1.642h1.47c0.001 0 0.001 0 0.002 0 1.325 0 2.399 1.074 2.399 2.399 0 0.497-0.151 0.958-0.41 1.341l0.005-0.009-1.246 1.868h3.249c2.647 0 4.8-2.153 4.8-4.8s-2.153-4.8-4.8-4.8z"></path>
<path d="M20.706 20.423c-0.138-0.254-0.402-0.423-0.706-0.423h-3.69l1.25-3.747c0.026-0.075 0.041-0.162 0.041-0.253 0-0.314-0.18-0.586-0.443-0.717l-0.005-0.002c-0.103-0.051-0.224-0.082-0.352-0.082-0.276 0-0.52 0.14-0.663 0.354l-0.002 0.003-4.8 7.2c-0.085 0.125-0.136 0.279-0.136 0.446 0 0.441 0.357 0.798 0.798 0.798 0.001 0 0.002 0 0.002 0h3.69l-1.25 3.747c-0.024 0.073-0.039 0.158-0.039 0.246 0 0.443 0.359 0.802 0.802 0.802 0.274 0 0.516-0.138 0.661-0.348l0.002-0.003 4.8-7.2c0.084-0.125 0.134-0.278 0.134-0.443 0-0.138-0.035-0.268-0.097-0.382l0.002 0.004z"></path>
<path d="M8.358 12.71c1.634-1.967 4.081-3.21 6.818-3.21 0.009 0 0.017 0 0.026 0h-0.001c2.789 0 5.366 1.29 7.031 3.447 0.53-0.157 1.139-0.247 1.769-0.247 1.405 0 2.705 0.449 3.765 1.211l-0.019-0.013c0.012-0.13 0.038-0.258 0.038-0.39 0-2.062-1.463-3.79-3.458-4.255-0.532-3.458-3.591-6.051-7.182-6.051-3.125 0-5.851 1.928-6.849 4.787-2.261 0.598-3.79 2.526-3.79 4.854l0.002 0.038c0.453-0.113 0.974-0.178 1.51-0.178 0.12 0 0.238 0.003 0.356 0.010l-0.016-0.001z"></path>
</symbol>
<symbol id="Weather-8" viewBox="0 0 32 32">
<title>Weather-8</title>
<path d="M28.8 19.2c0-2.647-2.153-4.8-4.8-4.8-0.001 0-0.002 0-0.002 0-0.894 0-1.73 0.246-2.444 0.675l0.022-0.012c-1.228-2.313-3.621-3.861-6.375-3.863h-0c-0.004 0-0.009 0-0.014 0-2.537 0-4.766 1.319-6.040 3.308l-0.017 0.029c-0.339-0.087-0.728-0.136-1.129-0.137h-0c-2.647 0-4.8 2.153-4.8 4.8 0.003 2.48 1.883 4.52 4.296 4.774l0.021 0.002v2.424c0 0.442 0.358 0.8 0.8 0.8s0.8-0.358 0.8-0.8v0-2.4h0.643c-0.253-0.71-0.182-1.495 0.243-2.132l4.8-7.199c0.435-0.648 1.165-1.069 1.993-1.069 0.001 0 0.002 0 0.003 0h-0c0.362 0 0.726 0.083 1.051 0.242 0.804 0.402 1.347 1.22 1.347 2.164 0 0.269-0.044 0.527-0.125 0.769l0.005-0.017-0.547 1.642h1.47c0.001 0 0.001 0 0.002 0 1.325 0 2.399 1.074 2.399 2.399 0 0.497-0.151 0.958-0.41 1.341l0.005-0.009-1.246 1.868h2.282v2.4c0 0.442 0.358 0.8 0.8 0.8s0.8-0.358 0.8-0.8v0-2.446c2.348-0.312 4.166-2.322 4.166-4.754z"></path>
<path d="M20.706 20.423c-0.138-0.254-0.402-0.423-0.706-0.423h-3.69l1.25-3.747c0.026-0.075 0.041-0.162 0.041-0.253 0-0.314-0.18-0.586-0.443-0.717l-0.005-0.002c-0.103-0.051-0.224-0.082-0.352-0.082-0.276 0-0.52 0.14-0.663 0.354l-0.002 0.003-4.8 7.2c-0.085 0.125-0.136 0.279-0.136 0.446 0 0.441 0.357 0.798 0.798 0.798 0.001 0 0.002 0 0.002 0h3.69l-1.25 3.747c-0.024 0.073-0.039 0.158-0.039 0.246 0 0.443 0.359 0.802 0.802 0.802 0.274 0 0.516-0.138 0.661-0.348l0.002-0.003 4.8-7.2c0.084-0.125 0.134-0.278 0.134-0.443 0-0.138-0.035-0.268-0.097-0.382l0.002 0.004z"></path>
<path d="M11.52 25.793c-0.442 0-0.8 0.358-0.8 0.8v0 1.407c0 0.442 0.358 0.8 0.8 0.8s0.8-0.358 0.8-0.8v0-1.407c0-0.442-0.358-0.8-0.8-0.8v0z"></path>
<path d="M20.634 25.793c-0.442 0-0.8 0.358-0.8 0.8v0 1.407c0 0.442 0.358 0.8 0.8 0.8s0.8-0.358 0.8-0.8v0-1.407c0-0.442-0.358-0.8-0.8-0.8v0z"></path>
<path d="M8 12.699c0.119 0 0.239 0.003 0.358 0.010 1.634-1.967 4.081-3.21 6.818-3.21 0.009 0 0.017 0 0.026 0h-0.001c2.789 0 5.366 1.29 7.031 3.447 0.53-0.157 1.139-0.247 1.769-0.247 1.405 0 2.705 0.449 3.765 1.211l-0.019-0.013c0.012-0.13 0.038-0.258 0.038-0.39 0-2.062-1.463-3.79-3.458-4.255-0.532-3.458-3.591-6.051-7.182-6.051-3.125 0-5.851 1.929-6.849 4.787-2.261 0.598-3.79 2.526-3.79 4.854l0.002 0.037c0.447-0.111 0.962-0.176 1.49-0.178h0.002z"></path>
</symbol>
<symbol id="Weather-9" viewBox="0 0 32 32">
<title>Weather-9</title>
<path d="M15.2 21.6v5.6c0 0.442 0.358 0.8 0.8 0.8s0.8-0.358 0.8-0.8v0-5.6h-1.6z"></path>
<path d="M10.4 21.6v3.2c0 0.442 0.358 0.8 0.8 0.8s0.8-0.358 0.8-0.8v0-3.2h-1.6z"></path>
<path d="M20 21.6v3.2c0 0.442 0.358 0.8 0.8 0.8s0.8-0.358 0.8-0.8v0-3.2h-1.6z"></path>
<path d="M24.715 11.31c-0.709-4.208-4.353-7.31-8.715-7.31-3.71 0-6.983 2.308-8.287 5.791-2.604 0.663-4.513 3.078-4.513 5.809 0 3.141 2.378 5.719 5.6 6h1.6v-4c0-0.442 0.358-0.8 0.8-0.8s0.8 0.358 0.8 0.8v0 4h3.2v-2.4c0-0.442 0.358-0.8 0.8-0.8s0.8 0.358 0.8 0.8v0 2.4h3.2v-4c0-0.442 0.358-0.8 0.8-0.8s0.8 0.358 0.8 0.8v0 4h2.4c0.030 0 0.059-0.002 0.088-0.005l-0.004 0c2.689-0.287 4.715-2.521 4.715-5.195 0-2.461-1.717-4.549-4.085-5.090z"></path>
</symbol>
<symbol id="Weather-10" viewBox="0 0 32 32">
<title>Weather-10</title>
<path d="M20.8 26.4c0.442 0 0.8-0.358 0.8-0.8v0-1.6h-1.6v1.6c0 0.442 0.358 0.8 0.8 0.8v0z"></path>
<path d="M16 28.8c0.442 0 0.8-0.358 0.8-0.8v0-4h-1.6v4c0 0.442 0.358 0.8 0.8 0.8v0z"></path>
<path d="M11.2 26.4c0.442 0 0.8-0.358 0.8-0.8v0-1.6h-1.6v1.6c0 0.442 0.358 0.8 0.8 0.8v0z"></path>
<path d="M10.298 7.987c-2.261 0.598-3.79 2.526-3.79 4.854l0.002 0.038c0.453-0.113 0.974-0.178 1.51-0.178 0.119 0 0.238 0.003 0.356 0.010l-0.016-0.001c1.634-1.967 4.081-3.21 6.818-3.21 0.009 0 0.017 0 0.026 0h-0.001c2.789 0 5.366 1.29 7.031 3.447 0.53-0.157 1.139-0.247 1.769-0.247 1.405 0 2.705 0.449 3.765 1.211l-0.019-0.013c0.012-0.13 0.038-0.258 0.038-0.39 0-2.062-1.463-3.79-3.458-4.255-0.532-3.458-3.591-6.051-7.182-6.051-3.125 0-5.851 1.928-6.848 4.787z"></path>
<path d="M24 14.4c-0.001 0-0.002 0-0.002 0-0.894 0-1.73 0.246-2.444 0.675l0.022-0.012c-1.228-2.313-3.621-3.861-6.375-3.863h-0c-0.004 0-0.009 0-0.014 0-2.537 0-4.766 1.319-6.040 3.308l-0.017 0.029c-0.339-0.087-0.728-0.136-1.129-0.137h-0c-2.647 0-4.8 2.153-4.8 4.8s2.153 4.8 4.8 4.8h2.4v-5.6c0-0.442 0.358-0.8 0.8-0.8s0.8 0.358 0.8 0.8v0 5.6h3.2v-4c0-0.442 0.358-0.8 0.8-0.8s0.8 0.358 0.8 0.8v0 4h3.2v-5.6c0-0.442 0.358-0.8 0.8-0.8s0.8 0.358 0.8 0.8v0 5.6h2.4c2.647 0 4.8-2.153 4.8-4.8s-2.153-4.8-4.8-4.8z"></path>
</symbol>
<symbol id="zoom-2" viewBox="0 0 32 32">
<title>zoom-2</title>
<path d="M30.748 27.919l-7.644-7.644c1.394-1.939 2.229-4.361 2.229-6.979 0-6.648-5.389-12.037-12.037-12.037s-12.037 5.389-12.037 12.037c0 6.648 5.389 12.037 12.037 12.037 2.617 0 5.040-0.835 7.015-2.254l-0.036 0.025 7.644 7.644zM4 13.333c0-5.155 4.179-9.333 9.333-9.333s9.333 4.179 9.333 9.333c0 5.155-4.179 9.333-9.333 9.333v0c-5.152-0.006-9.327-4.181-9.333-9.333v-0.001z"></path>
</symbol>
<symbol id="zoom-88" viewBox="0 0 32 32">
<title>zoom-88</title>
<path d="M10 10h12v12h-12v-12z"></path>
<path d="M4 12h-4v-10c0-1.2 0.8-2 2-2h10v4h-8v8z"></path>
<path d="M32 12h-4v-8h-8v-4h10c1.2 0 2 0.8 2 2v10z"></path>
<path d="M30 32h-10v-4h8v-8h4v10c0 1.2-0.8 2-2 2z"></path>
<path d="M12 32h-10c-1.2 0-2-0.8-2-2v-10h4v8h8v4z"></path>
</symbol>
<symbol id="zoom-e" viewBox="0 0 32 32">
<title>zoom-e</title>
<path d="M4 12h-4v-10c0-1.2 0.8-2 2-2h10v4h-8v8z"></path>
<path d="M32 12h-4v-8h-8v-4h10c1.2 0 2 0.8 2 2v10z"></path>
<path d="M30 32h-10v-4h8v-8h4v10c0 1.2-0.8 2-2 2z"></path>
<path d="M12 32h-10c-1.2 0-2-0.8-2-2v-10h4v8h8v4z"></path>
</symbol>
<symbol id="zoom" viewBox="0 0 32 32">
<title>zoom</title>
<path d="M11.2 4l16.8 16.8v-16.8z"></path>
<path d="M4 28h16.8l-16.8-16.8z"></path>
</symbol>
</defs>
</svg>
